<svg width="12" height="16" viewBox="0 0 12 16" fill="none" xmlns="http://www.w3.org/2000/svg">
<path d="M2.0625 16C1.5 16 1.01575 15.8041 0.60975 15.4124C0.20375 15.0206 0.0005 14.5362 0 13.9591V3.2154C0 2.72764 0.147 2.29122 0.441 1.90614C0.734999 1.52106 1.11925 1.27718 1.59375 1.17449L7.21874 0.0385078C7.68124 -0.0641797 8.09374 0.0385078 8.45624 0.34657C8.81874 0.654633 8.99999 1.05255 8.99999 1.54031V10.7244C8.99999 11.0967 8.88749 11.4273 8.66249 11.7164C8.43749 12.0055 8.14999 12.1818 7.79999 12.2455L1.89375 13.4585C1.78125 13.4842 1.6875 13.5453 1.6125 13.6418C1.5375 13.7383 1.5 13.8441 1.5 13.9591C1.5 14.1003 1.55625 14.2191 1.66875 14.3157C1.78125 14.4122 1.9125 14.4602 2.0625 14.4597H10.5V2.90734C10.5 2.68913 10.572 2.50635 10.716 2.35899C10.86 2.21163 11.038 2.1377 11.25 2.13718C11.462 2.13667 11.6402 2.21061 11.7847 2.35899C11.9292 2.50737 12.001 2.69016 12 2.90734V14.4597C12 14.8833 11.8532 15.246 11.5597 15.5479C11.2662 15.8498 10.913 16.0005 10.5 16H2.0625ZM3.15 11.6486C3.325 11.6101 3.46875 11.5203 3.58125 11.3791C3.69375 11.2379 3.75 11.0774 3.75 10.8977V3.25391C3.75 3.01003 3.65925 2.81107 3.47775 2.65704C3.29625 2.50301 3.087 2.45166 2.85 2.50301C2.675 2.54152 2.53125 2.63137 2.41875 2.77256C2.30625 2.91376 2.25 3.07421 2.25 3.25391V10.8977C2.25 11.1416 2.3405 11.3406 2.5215 11.4946C2.7025 11.6486 2.912 11.7 3.15 11.6486Z" fill="black"/>
</svg>
