<svg width="16" height="16" viewBox="0 0 16 16" fill="none" xmlns="http://www.w3.org/2000/svg">
<path d="M0.666915 11.3334C0.666915 13.54 2.46025 15.3334 4.66692 15.3334V14.3334C3.00025 14.3334 1.66692 13 1.66692 11.3334H0.666915ZM15.3336 4.66669C15.3336 2.46002 13.5402 0.666687 11.3336 0.666687V1.66669C13.0002 1.66669 14.3336 3.00002 14.3336 4.66669H15.3336ZM10.6669 2.88002L13.7269 5.94669C15.8736 8.09335 15.8736 11.58 13.7269 13.7267C11.5802 15.8734 8.09358 15.8734 5.94691 13.7267L1.23358 9.00002C0.906916 8.68669 0.906916 8.16002 1.23358 7.83335C1.31099 7.75575 1.40295 7.69418 1.50419 7.65217C1.60544 7.61016 1.71397 7.58853 1.82358 7.58853C1.93319 7.58853 2.04173 7.61016 2.14297 7.65217C2.24421 7.69418 2.33617 7.75575 2.41358 7.83335L5.36025 10.78L5.83358 10.3067L1.47358 5.94669C1.14691 5.62002 1.14691 5.09335 1.47358 4.76669C1.80025 4.44002 2.33358 4.44002 2.66692 4.76669L6.54025 8.66669L7.00025 8.18002L2.42025 3.58669C2.09358 3.26002 2.09358 2.73335 2.42025 2.40669C2.74691 2.08002 3.27358 2.08002 3.60025 2.40669L8.19358 7.00002L8.66691 6.53335L5.00025 2.88002C4.66691 2.55335 4.66691 2.02669 5.00025 1.70002C5.33358 1.37335 5.85358 1.37335 6.18025 1.70002L11.2602 6.78002C10.8621 7.29294 10.6647 7.93352 10.7052 8.58158C10.7457 9.22965 11.0213 9.84067 11.4802 10.3L11.9536 9.82669C11.579 9.45169 11.3687 8.94335 11.3687 8.41335C11.3687 7.88335 11.579 7.37502 11.9536 7.00002L12.1869 6.76669L9.47358 4.05335C9.14691 3.72669 9.14691 3.20002 9.47358 2.87335C9.80691 2.55335 10.3336 2.55335 10.6669 2.88002Z" fill="black"/>
</svg>
