<svg width="16" height="15" viewBox="0 0 16 15" fill="none" xmlns="http://www.w3.org/2000/svg">
<path d="M12.8 0C13.6487 0 14.4626 0.332714 15.0627 0.924948C15.6629 1.51718 16 2.32042 16 3.15797V9.47391C16 10.3115 15.6629 11.1147 15.0627 11.7069C14.4626 12.2992 13.6487 12.6319 12.8 12.6319H9.0208L5.2112 14.8875C5.09647 14.9554 4.96631 14.9939 4.83262 14.9993C4.69893 15.0048 4.56599 14.9771 4.44597 14.9187C4.32594 14.8603 4.22267 14.7732 4.14559 14.6653C4.06852 14.5573 4.02011 14.432 4.0048 14.3009L4 14.2109V12.6319H3.2C2.37901 12.6319 1.58942 12.3205 0.994551 11.7621C0.399684 11.2037 0.0450498 10.441 0.00400009 9.63181L0 9.47391V3.15797C0 2.32042 0.337142 1.51718 0.937258 0.924948C1.53737 0.332714 2.35131 0 3.2 0H12.8ZM9.6 7.10543H4.8C4.58783 7.10543 4.38434 7.18861 4.23431 7.33667C4.08429 7.48473 4 7.68554 4 7.89492C4 8.10431 4.08429 8.30512 4.23431 8.45318C4.38434 8.60124 4.58783 8.68442 4.8 8.68442H9.6C9.81217 8.68442 10.0157 8.60124 10.1657 8.45318C10.3157 8.30512 10.4 8.10431 10.4 7.89492C10.4 7.68554 10.3157 7.48473 10.1657 7.33667C10.0157 7.18861 9.81217 7.10543 9.6 7.10543ZM11.2 3.94746H4.8C4.58783 3.94746 4.38434 4.03064 4.23431 4.1787C4.08429 4.32676 4 4.52757 4 4.73695C4 4.94634 4.08429 5.14715 4.23431 5.29521C4.38434 5.44327 4.58783 5.52645 4.8 5.52645H11.2C11.4122 5.52645 11.6157 5.44327 11.7657 5.29521C11.9157 5.14715 12 4.94634 12 4.73695C12 4.52757 11.9157 4.32676 11.7657 4.1787C11.6157 4.03064 11.4122 3.94746 11.2 3.94746Z" fill="#121212"/>
</svg>
