<svg width="366" height="206" viewBox="0 0 366 206" fill="none" xmlns="http://www.w3.org/2000/svg">
<g filter="url(#filter0_d_776_1669)">
<rect x="51" y="25" width="13" height="12" fill="white"/>
<rect x="64" y="25" width="13" height="12" fill="white"/>
<rect x="77" y="25" width="13" height="12" fill="white"/>
<rect x="90" y="37" width="13" height="12" fill="white"/>
<rect x="145" y="25" width="13" height="12" fill="white"/>
<rect x="64" y="121" width="13" height="12" fill="white"/>
<rect x="223" y="49" width="13" height="12" fill="white"/>
<rect x="328" y="49" width="13" height="12" fill="white"/>
<rect x="223" y="37" width="13" height="12" fill="white"/>
<rect x="328" y="37" width="13" height="12" fill="white"/>
<rect x="223" y="25" width="13" height="12" fill="white"/>
<rect x="328" y="25" width="13" height="12" fill="white"/>
<rect x="64" y="145" width="13" height="12" fill="white"/>
<rect x="223" y="73" width="13" height="12" fill="white"/>
<rect x="328" y="73" width="13" height="12" fill="white"/>
<rect x="328" y="85" width="13" height="12" fill="white"/>
<rect x="328" y="97" width="13" height="12" fill="white"/>
<rect x="145" y="49" width="13" height="12" fill="white"/>
<rect x="145" y="73" width="13" height="12" fill="white"/>
<rect x="158" y="61" width="13" height="12" fill="white"/>
<rect x="171" y="61" width="13" height="12" fill="white"/>
<rect x="145" y="97" width="13" height="12" fill="white"/>
<rect x="51" y="37" width="13" height="12" fill="white"/>
<rect x="77" y="37" width="13" height="12" fill="white"/>
<rect x="132" y="25" width="13" height="12" fill="white"/>
<rect x="51" y="121" width="13" height="12" fill="white"/>
<rect x="210" y="49" width="13" height="12" fill="white"/>
<rect x="315" y="49" width="13" height="12" fill="white"/>
<rect x="210" y="37" width="13" height="12" fill="white"/>
<rect x="315" y="37" width="13" height="12" fill="white"/>
<rect x="210" y="25" width="13" height="12" fill="white"/>
<rect x="315" y="25" width="13" height="12" fill="white"/>
<rect x="51" y="145" width="13" height="12" fill="white"/>
<rect x="210" y="73" width="13" height="12" fill="white"/>
<rect x="315" y="73" width="13" height="12" fill="white"/>
<rect x="315" y="85" width="13" height="12" fill="white"/>
<rect x="315" y="97" width="13" height="12" fill="white"/>
<rect x="132" y="49" width="13" height="12" fill="white"/>
<rect x="132" y="73" width="13" height="12" fill="white"/>
<rect x="132" y="97" width="13" height="12" fill="white"/>
<rect x="90" y="49" width="13" height="12" fill="white"/>
<rect x="103" y="49" width="13" height="12" fill="white"/>
<rect x="145" y="37" width="13" height="12" fill="white"/>
<rect x="64" y="133" width="13" height="12" fill="white"/>
<rect x="223" y="61" width="13" height="12" fill="white"/>
<rect x="328" y="61" width="13" height="12" fill="white"/>
<rect x="64" y="157" width="13" height="12" fill="white"/>
<rect x="223" y="85" width="13" height="12" fill="white"/>
<rect x="90" y="157" width="13" height="12" fill="white"/>
<rect x="249" y="85" width="13" height="12" fill="white"/>
<rect x="116" y="157" width="13" height="12" fill="white"/>
<rect x="275" y="85" width="13" height="12" fill="white"/>
<rect x="142" y="157" width="13" height="12" fill="white"/>
<rect x="145" y="61" width="13" height="12" fill="white"/>
<rect x="145" y="85" width="13" height="12" fill="white"/>
<rect x="145" y="109" width="13" height="12" fill="white"/>
<rect x="132" y="37" width="13" height="12" fill="white"/>
<rect x="51" y="133" width="13" height="12" fill="white"/>
<rect x="210" y="61" width="13" height="12" fill="white"/>
<rect x="315" y="61" width="13" height="12" fill="white"/>
<rect x="302" y="61" width="13" height="12" fill="white"/>
<rect x="302" y="37" width="13" height="12" fill="white"/>
<rect x="289" y="61" width="13" height="12" fill="white"/>
<rect x="289" y="37" width="13" height="12" fill="white"/>
<rect x="276" y="61" width="13" height="12" fill="white"/>
<rect x="276" y="37" width="13" height="12" fill="white"/>
<rect x="51" y="157" width="13" height="12" fill="white"/>
<rect x="210" y="85" width="13" height="12" fill="white"/>
<rect x="77" y="157" width="13" height="12" fill="white"/>
<rect x="236" y="85" width="13" height="12" fill="white"/>
<rect x="103" y="157" width="13" height="12" fill="white"/>
<rect x="262" y="85" width="13" height="12" fill="white"/>
<rect x="129" y="157" width="13" height="12" fill="white"/>
<rect x="288" y="85" width="13" height="12" fill="white"/>
<rect x="288" y="109" width="13" height="12" fill="white"/>
<rect x="288" y="121" width="13" height="12" fill="white"/>
<rect x="288" y="157" width="13" height="12" fill="white"/>
<rect x="275" y="109" width="13" height="12" fill="white"/>
<rect x="262" y="109" width="13" height="12" fill="white"/>
<rect x="262" y="121" width="13" height="12" fill="white"/>
<rect x="262" y="157" width="13" height="12" fill="white"/>
<rect x="249" y="121" width="13" height="12" fill="white"/>
<rect x="236" y="133" width="13" height="12" fill="white"/>
<rect x="249" y="133" width="13" height="12" fill="white"/>
<rect x="301" y="133" width="13" height="12" fill="white"/>
<rect x="236" y="145" width="13" height="12" fill="white"/>
<rect x="249" y="145" width="13" height="12" fill="white"/>
<rect x="301" y="145" width="13" height="12" fill="white"/>
<rect x="249" y="157" width="13" height="12" fill="white"/>
<rect x="262" y="169" width="13" height="12" fill="white"/>
<rect x="275" y="169" width="13" height="12" fill="white"/>
<rect x="288" y="169" width="13" height="12" fill="white"/>
<rect x="301" y="157" width="13" height="12" fill="white"/>
<rect x="314" y="145" width="13" height="12" fill="white"/>
<rect x="314" y="133" width="13" height="12" fill="white"/>
<rect x="301" y="121" width="13" height="12" fill="white"/>
<rect x="132" y="61" width="13" height="12" fill="white"/>
<rect x="132" y="85" width="13" height="12" fill="white"/>
<rect x="132" y="109" width="13" height="12" fill="white"/>
<rect x="90" y="61" width="13" height="12" fill="white"/>
<rect x="103" y="61" width="13" height="12" fill="white"/>
<rect x="90" y="73" width="13" height="12" fill="white"/>
<rect x="103" y="73" width="13" height="12" fill="white"/>
<rect x="90" y="85" width="13" height="12" fill="white"/>
<rect x="51" y="85" width="13" height="12" fill="white"/>
<rect x="77" y="85" width="13" height="12" fill="white"/>
<rect x="77" y="97" width="13" height="12" fill="white"/>
<rect x="64" y="97" width="13" height="12" fill="white"/>
<rect x="51" y="97" width="13" height="12" fill="white"/>
<rect x="38" y="85" width="13" height="12" fill="white"/>
<rect x="38" y="73" width="13" height="12" fill="white"/>
<rect x="38" y="61" width="13" height="12" fill="white"/>
<rect x="38" y="49" width="13" height="12" fill="white"/>
<rect x="25" y="49" width="13" height="12" fill="white"/>
<rect x="25" y="61" width="13" height="12" fill="white"/>
<rect x="25" y="73" width="13" height="12" fill="white"/>
<rect x="38" y="37" width="13" height="12" fill="white"/>
</g>
<defs>
<filter id="filter0_d_776_1669" x="0" y="0" width="366" height="206" filterUnits="userSpaceOnUse" color-interpolation-filters="sRGB">
<feFlood flood-opacity="0" result="BackgroundImageFix"/>
<feColorMatrix in="SourceAlpha" type="matrix" values="0 0 0 0 0 0 0 0 0 0 0 0 0 0 0 0 0 0 127 0" result="hardAlpha"/>
<feOffset/>
<feGaussianBlur stdDeviation="12.5"/>
<feComposite in2="hardAlpha" operator="out"/>
<feColorMatrix type="matrix" values="0 0 0 0 1 0 0 0 0 1 0 0 0 0 1 0 0 0 0.4 0"/>
<feBlend mode="normal" in2="BackgroundImageFix" result="effect1_dropShadow_776_1669"/>
<feBlend mode="normal" in="SourceGraphic" in2="effect1_dropShadow_776_1669" result="shape"/>
</filter>
</defs>
</svg>
