<svg width="735" height="170" viewBox="0 0 735 170" fill="none" xmlns="http://www.w3.org/2000/svg">
<g filter="url(#filter0_d_774_1121)">
<path d="M25.0111 25.5357H36.9575V37.4821H25.0111V25.5357ZM36.9575 25.5357H48.904V37.4821H36.9575V25.5357ZM48.904 25.5357H60.8504V37.4821H48.904V25.5357ZM60.8504 25.5357H72.7968V37.4821H60.8504V25.5357ZM72.7968 25.5357H84.7432V37.4821H72.7968V25.5357ZM84.7432 25.5357H96.6897V37.4821H84.7432V25.5357ZM84.7432 37.4821H96.6897V49.4286H84.7432V37.4821ZM72.7968 37.4821H84.7432V49.4286H72.7968V37.4821ZM60.8504 37.4821H72.7968V49.4286H60.8504V37.4821ZM48.904 37.4821H60.8504V49.4286H48.904V37.4821ZM36.9575 37.4821H48.904V49.4286H36.9575V37.4821ZM25.0111 37.4821H36.9575V49.4286H25.0111V37.4821ZM96.6897 37.4821H108.636V49.4286H96.6897V37.4821ZM96.6897 49.4286H108.636V61.375H96.6897V49.4286ZM96.6897 61.375H108.636V73.3214H96.6897V61.375ZM84.7432 61.375H96.6897V73.3214H84.7432V61.375ZM84.7432 49.4286H96.6897V61.375H84.7432V49.4286ZM84.7432 73.3214H96.6897V85.2679H84.7432V73.3214ZM72.7968 73.3214H84.7432V85.2679H72.7968V73.3214ZM60.8504 73.3214H72.7968V85.2679H60.8504V73.3214ZM48.904 73.3214H60.8504V85.2679H48.904V73.3214ZM36.9575 73.3214H48.904V85.2679H36.9575V73.3214ZM36.9575 61.375H48.904V73.3214H36.9575V61.375ZM36.9575 49.4286H48.904V61.375H36.9575V49.4286ZM25.0111 49.4286H36.9575V61.375H25.0111V49.4286ZM25.0111 61.375H36.9575V73.3214H25.0111V61.375ZM25.0111 73.3214H36.9575V85.2679H25.0111V73.3214ZM25.0111 85.2679H36.9575V97.2143H25.0111V85.2679ZM36.9575 85.2679H48.904V97.2143H36.9575V85.2679ZM48.904 85.2679H60.8504V97.2143H48.904V85.2679ZM60.8504 85.2679H72.7968V97.2143H60.8504V85.2679ZM72.7968 85.2679H84.7432V97.2143H72.7968V85.2679ZM84.7432 85.2679H96.6897V97.2143H84.7432V85.2679ZM96.6897 85.2679H108.636V97.2143H96.6897V85.2679ZM96.6897 97.2143H108.636V109.161H96.6897V97.2143ZM84.7432 97.2143H96.6897V109.161H84.7432V97.2143ZM84.7432 121.107H96.6897V133.054H84.7432V121.107ZM96.6897 121.107H108.636V133.054H96.6897V121.107ZM96.6897 109.161H108.636V121.107H96.6897V109.161ZM84.7432 109.161H96.6897V121.107H84.7432V109.161ZM84.7432 133.054H96.6897V145H84.7432V133.054ZM72.7968 133.054H84.7432V145H72.7968V133.054ZM60.8504 133.054H72.7968V145H60.8504V133.054ZM48.904 133.054H60.8504V145H48.904V133.054ZM36.9575 133.054H48.904V145H36.9575V133.054ZM25.0111 133.054H36.9575V145H25.0111V133.054ZM25.0111 121.107H36.9575V133.054H25.0111V121.107ZM25.0111 109.161H36.9575V121.107H25.0111V109.161ZM25.0111 97.2143H36.9575V109.161H25.0111V97.2143ZM36.9575 97.2143H48.904V109.161H36.9575V97.2143ZM36.9575 109.161H48.904V121.107H36.9575V109.161ZM36.9575 121.107H48.904V133.054H36.9575V121.107ZM48.904 121.107H60.8504V133.054H48.904V121.107ZM60.8504 121.107H72.7968V133.054H60.8504V121.107ZM72.7968 121.107H84.7432V133.054H72.7968V121.107ZM148.967 25.5357H160.913V37.4821H148.967V25.5357ZM137.02 25.5357H148.967V37.4821H137.02V25.5357ZM137.02 37.4821H148.967V49.4286H137.02V37.4821ZM148.967 37.4821H160.913V49.4286H148.967V37.4821ZM160.913 37.4821H172.859V49.4286H160.913V37.4821ZM160.913 25.5357H172.859V37.4821H160.913V25.5357ZM172.859 25.5357H184.806V37.4821H172.859V25.5357ZM184.806 25.5357H196.752V37.4821H184.806V25.5357ZM184.806 37.4821H196.752V49.4286H184.806V37.4821ZM172.859 37.4821H184.806V49.4286H172.859V37.4821ZM172.859 49.4286H184.806V61.375H172.859V49.4286ZM184.806 49.4286H196.752V61.375H184.806V49.4286ZM196.752 37.4821H208.699V49.4286H196.752V37.4821ZM196.752 49.4286H208.699V61.375H196.752V49.4286ZM196.752 61.375H208.699V73.3214H196.752V61.375ZM196.752 73.3214H208.699V85.2679H196.752V73.3214ZM196.752 85.2679H208.699V97.2143H196.752V85.2679ZM196.752 97.2143H208.699V109.161H196.752V97.2143ZM196.752 109.161H208.699V121.107H196.752V109.161ZM196.752 121.107H208.699V133.054H196.752V121.107ZM184.806 121.107H196.752V133.054H184.806V121.107ZM184.806 109.161H196.752V121.107H184.806V109.161ZM184.806 97.2143H196.752V109.161H184.806V97.2143ZM184.806 85.2679H196.752V97.2143H184.806V85.2679ZM184.806 73.3214H196.752V85.2679H184.806V73.3214ZM184.806 61.375H196.752V73.3214H184.806V61.375ZM172.859 109.161H184.806V121.107H172.859V109.161ZM172.859 121.107H184.806V133.054H172.859V121.107ZM184.806 133.054H196.752V145H184.806V133.054ZM172.859 133.054H184.806V145H172.859V133.054ZM160.913 133.054H172.859V145H160.913V133.054ZM160.913 121.107H172.859V133.054H160.913V121.107ZM148.967 133.054H160.913V145H148.967V133.054ZM137.02 133.054H148.967V145H137.02V133.054ZM137.02 121.107H148.967V133.054H137.02V121.107ZM148.967 121.107H160.913V133.054H148.967V121.107ZM148.967 109.161H160.913V121.107H148.967V109.161ZM137.02 109.161H148.967V121.107H137.02V109.161ZM125.074 121.107H137.02V133.054H125.074V121.107ZM125.074 109.161H137.02V121.107H125.074V109.161ZM125.074 97.2143H137.02V109.161H125.074V97.2143ZM125.074 85.2679H137.02V97.2143H125.074V85.2679ZM125.074 73.3214H137.02V85.2679H125.074V73.3214ZM125.074 61.375H137.02V73.3214H125.074V61.375ZM125.074 49.4286H137.02V61.375H125.074V49.4286ZM137.02 49.4286H148.967V61.375H137.02V49.4286ZM125.074 37.4821H137.02V49.4286H125.074V37.4821ZM148.967 49.4286H160.913V61.375H148.967V49.4286ZM137.02 61.375H148.967V73.3214H137.02V61.375ZM137.02 73.3214H148.967V85.2679H137.02V73.3214ZM137.02 85.2679H148.967V97.2143H137.02V85.2679ZM137.02 97.2143H148.967V109.161H137.02V97.2143ZM260.975 85.2679H272.922V97.2143H260.975V85.2679ZM260.975 73.3214H272.922V85.2679H260.975V73.3214ZM272.922 73.3214H284.868V85.2679H272.922V73.3214ZM272.922 85.2679H284.868V97.2143H272.922V85.2679ZM272.922 97.2143H284.868V109.161H272.922V97.2143ZM260.975 97.2143H272.922V109.161H260.975V97.2143ZM260.975 49.4286H272.922V61.375H260.975V49.4286ZM260.975 61.375H272.922V73.3214H260.975V61.375ZM249.029 73.3214H260.975V85.2679H249.029V73.3214ZM249.029 61.375H260.975V73.3214H249.029V61.375ZM249.029 49.4286H260.975V61.375H249.029V49.4286ZM225.136 25.5357H237.083V37.4821H225.136V25.5357ZM237.083 25.5357H249.029V37.4821H237.083V25.5357ZM249.029 25.5357H260.975V37.4821H249.029V25.5357ZM249.029 37.4821H260.975V49.4286H249.029V37.4821ZM237.083 37.4821H249.029V49.4286H237.083V37.4821ZM225.136 37.4821H237.083V49.4286H225.136V37.4821ZM225.136 49.4286H237.083V61.375H225.136V49.4286ZM237.083 49.4286H249.029V61.375H237.083V49.4286ZM237.083 61.375H249.029V73.3214H237.083V61.375ZM237.083 73.3214H249.029V85.2679H237.083V73.3214ZM225.136 73.3214H237.083V85.2679H225.136V73.3214ZM225.136 61.375H237.083V73.3214H225.136V61.375ZM225.136 85.2679H237.083V97.2143H225.136V85.2679ZM237.083 85.2679H249.029V97.2143H237.083V85.2679ZM237.083 97.2143H249.029V109.161H237.083V97.2143ZM237.083 109.161H249.029V121.107H237.083V109.161ZM237.083 121.107H249.029V133.054H237.083V121.107ZM237.083 133.054H249.029V145H237.083V133.054ZM225.136 133.054H237.083V145H225.136V133.054ZM225.136 121.107H237.083V133.054H225.136V121.107ZM225.136 109.161H237.083V121.107H225.136V109.161ZM225.136 97.2143H237.083V109.161H225.136V97.2143ZM272.922 109.161H284.868V121.107H272.922V109.161ZM272.922 121.107H284.868V133.054H272.922V121.107ZM284.868 109.161H296.815V121.107H284.868V109.161ZM284.868 97.2143H296.815V109.161H284.868V97.2143ZM284.868 121.107H296.815V133.054H284.868V121.107ZM284.868 133.054H296.815V145H284.868V133.054ZM296.815 133.054H308.761V145H296.815V133.054ZM308.761 133.054H320.708V145H308.761V133.054ZM308.761 121.107H320.708V133.054H308.761V121.107ZM308.761 109.161H320.708V121.107H308.761V109.161ZM296.815 109.161H308.761V121.107H296.815V109.161ZM296.815 121.107H308.761V133.054H296.815V121.107ZM296.815 97.2143H308.761V109.161H296.815V97.2143ZM308.761 85.2679H320.708V97.2143H308.761V85.2679ZM308.761 73.3214H320.708V85.2679H308.761V73.3214ZM308.761 97.2143H320.708V109.161H308.761V97.2143ZM296.815 85.2679H308.761V97.2143H296.815V85.2679ZM296.815 73.3214H308.761V85.2679H296.815V73.3214ZM296.815 61.375H308.761V73.3214H296.815V61.375ZM308.761 61.375H320.708V73.3214H308.761V61.375ZM308.761 49.4286H320.708V61.375H308.761V49.4286ZM296.815 25.5357H308.761V37.4821H296.815V25.5357ZM308.761 25.5357H320.708V37.4821H308.761V25.5357ZM308.761 37.4821H320.708V49.4286H308.761V37.4821ZM296.815 37.4821H308.761V49.4286H296.815V37.4821ZM296.815 49.4286H308.761V61.375H296.815V49.4286ZM396.908 25.5357H408.855V37.4821H396.908V25.5357ZM384.962 25.5357H396.908V37.4821H384.962V25.5357ZM384.962 37.4821H396.908V49.4286H384.962V37.4821ZM384.962 49.4286H396.908V61.375H384.962V49.4286ZM384.962 61.375H396.908V73.3214H384.962V61.375ZM384.962 73.3214H396.908V85.2679H384.962V73.3214ZM396.908 73.3214H408.855V85.2679H396.908V73.3214ZM396.908 61.375H408.855V73.3214H396.908V61.375ZM396.908 49.4286H408.855V61.375H396.908V49.4286ZM396.908 37.4821H408.855V49.4286H396.908V37.4821ZM396.908 85.2679H408.855V97.2143H396.908V85.2679ZM396.908 97.2143H408.855V109.161H396.908V97.2143ZM396.908 109.161H408.855V121.107H396.908V109.161ZM396.908 121.107H408.855V133.054H396.908V121.107ZM384.962 121.107H396.908V133.054H384.962V121.107ZM384.962 133.054H396.908V145H384.962V133.054ZM373.016 133.054H384.962V145H373.016V133.054ZM373.016 121.107H384.962V133.054H373.016V121.107ZM384.962 109.161H396.908V121.107H384.962V109.161ZM384.962 97.2143H396.908V109.161H384.962V97.2143ZM384.962 85.2679H396.908V97.2143H384.962V85.2679ZM361.069 133.054H373.016V145H361.069V133.054ZM349.123 133.054H361.069V145H349.123V133.054ZM337.176 121.107H349.123V133.054H337.176V121.107ZM337.176 109.161H349.123V121.107H337.176V109.161ZM349.123 109.161H361.069V121.107H349.123V109.161ZM349.123 121.107H361.069V133.054H349.123V121.107ZM361.069 121.107H373.016V133.054H361.069V121.107ZM373.016 109.161H384.962V121.107H373.016V109.161ZM449.154 25.5357H461.101V37.4821H449.154V25.5357ZM437.208 25.5357H449.154V37.4821H437.208V25.5357ZM437.208 37.4821H449.154V49.4286H437.208V37.4821ZM449.154 37.4821H461.101V49.4286H449.154V37.4821ZM461.101 37.4821H473.047V49.4286H461.101V37.4821ZM461.101 25.5357H473.047V37.4821H461.101V25.5357ZM473.047 25.5357H484.993V37.4821H473.047V25.5357ZM484.993 25.5357H496.94V37.4821H484.993V25.5357ZM484.993 37.4821H496.94V49.4286H484.993V37.4821ZM473.047 37.4821H484.993V49.4286H473.047V37.4821ZM473.047 49.4286H484.993V61.375H473.047V49.4286ZM484.993 49.4286H496.94V61.375H484.993V49.4286ZM496.94 37.4821H508.886V49.4286H496.94V37.4821ZM496.94 49.4286H508.886V61.375H496.94V49.4286ZM496.94 61.375H508.886V73.3214H496.94V61.375ZM496.94 73.3214H508.886V85.2679H496.94V73.3214ZM496.94 85.2679H508.886V97.2143H496.94V85.2679ZM496.94 97.2143H508.886V109.161H496.94V97.2143ZM496.94 109.161H508.886V121.107H496.94V109.161ZM496.94 121.107H508.886V133.054H496.94V121.107ZM484.993 121.107H496.94V133.054H484.993V121.107ZM484.993 109.161H496.94V121.107H484.993V109.161ZM484.993 97.2143H496.94V109.161H484.993V97.2143ZM484.993 85.2679H496.94V97.2143H484.993V85.2679ZM484.993 73.3214H496.94V85.2679H484.993V73.3214ZM484.993 61.375H496.94V73.3214H484.993V61.375ZM473.047 109.161H484.993V121.107H473.047V109.161ZM473.047 121.107H484.993V133.054H473.047V121.107ZM484.993 133.054H496.94V145H484.993V133.054ZM473.047 133.054H484.993V145H473.047V133.054ZM461.101 133.054H473.047V145H461.101V133.054ZM461.101 121.107H473.047V133.054H461.101V121.107ZM449.154 133.054H461.101V145H449.154V133.054ZM437.208 133.054H449.154V145H437.208V133.054ZM437.208 121.107H449.154V133.054H437.208V121.107ZM449.154 121.107H461.101V133.054H449.154V121.107ZM449.154 109.161H461.101V121.107H449.154V109.161ZM437.208 109.161H449.154V121.107H437.208V109.161ZM425.261 121.107H437.208V133.054H425.261V121.107ZM425.261 109.161H437.208V121.107H425.261V109.161ZM425.261 97.2143H437.208V109.161H425.261V97.2143ZM425.261 85.2679H437.208V97.2143H425.261V85.2679ZM425.261 73.3214H437.208V85.2679H425.261V73.3214ZM425.261 61.375H437.208V73.3214H425.261V61.375ZM425.261 49.4286H437.208V61.375H425.261V49.4286ZM437.208 49.4286H449.154V61.375H437.208V49.4286ZM425.261 37.4821H437.208V49.4286H425.261V37.4821ZM449.154 49.4286H461.101V61.375H449.154V49.4286ZM437.208 61.375H449.154V73.3214H437.208V61.375ZM437.208 73.3214H449.154V85.2679H437.208V73.3214ZM437.208 85.2679H449.154V97.2143H437.208V85.2679ZM437.208 97.2143H449.154V109.161H437.208V97.2143ZM537.27 37.4821H549.217V49.4286H537.27V37.4821ZM585.056 37.4821H597.002V49.4286H585.056V37.4821ZM585.056 49.4286H597.002V61.375H585.056V49.4286ZM597.002 37.4821H608.949V49.4286H597.002V37.4821ZM597.002 49.4286H608.949V61.375H597.002V49.4286ZM597.002 61.375H608.949V73.3214H597.002V61.375ZM597.002 73.3214H608.949V85.2679H597.002V73.3214ZM597.002 85.2679H608.949V97.2143H597.002V85.2679ZM597.002 97.2143H608.949V109.161H597.002V97.2143ZM597.002 109.161H608.949V121.107H597.002V109.161ZM597.002 121.107H608.949V133.054H597.002V121.107ZM585.056 121.107H597.002V133.054H585.056V121.107ZM585.056 109.161H597.002V121.107H585.056V109.161ZM585.056 97.2143H597.002V109.161H585.056V97.2143ZM585.056 85.2679H597.002V97.2143H585.056V85.2679ZM585.056 73.3214H597.002V85.2679H585.056V73.3214ZM585.056 61.375H597.002V73.3214H585.056V61.375ZM573.11 109.161H585.056V121.107H573.11V109.161ZM573.11 121.107H585.056V133.054H573.11V121.107ZM585.056 133.054H597.002V145H585.056V133.054ZM573.11 133.054H585.056V145H573.11V133.054ZM561.163 133.054H573.11V145H561.163V133.054ZM561.163 121.107H573.11V133.054H561.163V121.107ZM549.217 133.054H561.163V145H549.217V133.054ZM537.27 133.054H549.217V145H537.27V133.054ZM537.27 121.107H549.217V133.054H537.27V121.107ZM549.217 121.107H561.163V133.054H549.217V121.107ZM549.217 109.161H561.163V121.107H549.217V109.161ZM537.27 109.161H549.217V121.107H537.27V109.161ZM525.324 121.107H537.27V133.054H525.324V121.107ZM525.324 109.161H537.27V121.107H525.324V109.161ZM525.324 97.2143H537.27V109.161H525.324V97.2143ZM525.324 85.2679H537.27V97.2143H525.324V85.2679ZM525.324 73.3214H537.27V85.2679H525.324V73.3214ZM525.324 61.375H537.27V73.3214H525.324V61.375ZM525.324 49.4286H537.27V61.375H525.324V49.4286ZM537.27 49.4286H549.217V61.375H537.27V49.4286ZM525.324 37.4821H537.27V49.4286H525.324V37.4821ZM537.27 61.375H549.217V73.3214H537.27V61.375ZM537.27 73.3214H549.217V85.2679H537.27V73.3214ZM537.27 85.2679H549.217V97.2143H537.27V85.2679ZM537.27 97.2143H549.217V109.161H537.27V97.2143ZM525.324 25.5357H537.27V37.4821H525.324V25.5357ZM537.27 25.5357H549.217V37.4821H537.27V25.5357ZM585.056 25.5357H597.002V37.4821H585.056V25.5357ZM597.002 25.5357H608.949V37.4821H597.002V25.5357ZM637.333 85.2679H649.279V97.2143H637.333V85.2679ZM649.279 85.2679H661.226V97.2143H649.279V85.2679ZM661.226 85.2679H673.172V97.2143H661.226V85.2679ZM673.172 85.2679H685.118V97.2143H673.172V85.2679ZM649.279 97.2143H661.226V109.161H649.279V97.2143ZM637.333 97.2143H649.279V109.161H637.333V97.2143ZM661.226 97.2143H673.172V109.161H661.226V97.2143ZM673.172 97.2143H685.118V109.161H673.172V97.2143ZM685.118 109.161H697.065V121.107H685.118V109.161ZM697.065 97.2143H709.011V109.161H697.065V97.2143ZM685.118 97.2143H697.065V109.161H685.118V97.2143ZM697.065 109.161H709.011V121.107H697.065V109.161ZM685.118 121.107H697.065V133.054H685.118V121.107ZM697.065 121.107H709.011V133.054H697.065V121.107ZM697.065 133.054H709.011V145H697.065V133.054ZM685.118 133.054H697.065V145H685.118V133.054ZM637.333 133.054H649.279V145H637.333V133.054ZM625.386 133.054H637.333V145H625.386V133.054ZM625.386 121.107H637.333V133.054H625.386V121.107ZM637.333 121.107H649.279V133.054H637.333V121.107ZM637.333 109.161H649.279V121.107H637.333V109.161ZM625.386 109.161H637.333V121.107H625.386V109.161ZM625.386 97.2143H637.333V109.161H625.386V97.2143ZM625.386 85.2679H637.333V97.2143H625.386V85.2679ZM625.386 73.3214H637.333V85.2679H625.386V73.3214ZM637.333 73.3214H649.279V85.2679H637.333V73.3214ZM625.386 25.5357H637.333V37.4821H625.386V25.5357ZM637.333 25.5357H649.279V37.4821H637.333V25.5357ZM649.279 25.5357H661.226V37.4821H649.279V25.5357ZM661.226 25.5357H673.172V37.4821H661.226V25.5357ZM673.172 25.5357H685.118V37.4821H673.172V25.5357ZM685.118 25.5357H697.065V37.4821H685.118V25.5357ZM685.118 37.4821H697.065V49.4286H685.118V37.4821ZM673.172 37.4821H685.118V49.4286H673.172V37.4821ZM661.226 37.4821H673.172V49.4286H661.226V37.4821ZM649.279 37.4821H661.226V49.4286H649.279V37.4821ZM637.333 37.4821H649.279V49.4286H637.333V37.4821ZM625.386 37.4821H637.333V49.4286H625.386V37.4821ZM625.386 49.4286H637.333V61.375H625.386V49.4286ZM625.386 61.375H637.333V73.3214H625.386V61.375ZM637.333 61.375H649.279V73.3214H637.333V61.375ZM637.333 49.4286H649.279V61.375H637.333V49.4286ZM685.118 49.4286H697.065V61.375H685.118V49.4286ZM697.065 49.4286H709.011V61.375H697.065V49.4286ZM697.065 37.4821H709.011V49.4286H697.065V37.4821ZM697.065 61.375H709.011V73.3214H697.065V61.375ZM685.118 61.375H697.065V73.3214H685.118V61.375ZM685.118 73.3214H697.065V85.2679H685.118V73.3214ZM697.065 73.3214H709.011V85.2679H697.065V73.3214ZM685.118 85.2679H697.065V97.2143H685.118V85.2679Z" fill="white"/>
</g>
<defs>
<filter id="filter0_d_774_1121" x="0.0107422" y="0.535706" width="734.001" height="169.464" filterUnits="userSpaceOnUse" color-interpolation-filters="sRGB">
<feFlood flood-opacity="0" result="BackgroundImageFix"/>
<feColorMatrix in="SourceAlpha" type="matrix" values="0 0 0 0 0 0 0 0 0 0 0 0 0 0 0 0 0 0 127 0" result="hardAlpha"/>
<feOffset/>
<feGaussianBlur stdDeviation="12.5"/>
<feComposite in2="hardAlpha" operator="out"/>
<feColorMatrix type="matrix" values="0 0 0 0 1 0 0 0 0 1 0 0 0 0 1 0 0 0 0.4 0"/>
<feBlend mode="normal" in2="BackgroundImageFix" result="effect1_dropShadow_774_1121"/>
<feBlend mode="normal" in="SourceGraphic" in2="effect1_dropShadow_774_1121" result="shape"/>
</filter>
</defs>
</svg>
