<svg width="375" height="170" viewBox="0 0 375 170" fill="none" xmlns="http://www.w3.org/2000/svg">
<g filter="url(#filter0_d_774_1122)">
<path d="M49.3327 25.5357H61.2792V37.4821H49.3327V25.5357ZM37.3863 25.5357H49.3327V37.4821H37.3863V25.5357ZM37.3863 37.4821H49.3327V49.4286H37.3863V37.4821ZM49.3327 37.4821H61.2792V49.4286H49.3327V37.4821ZM61.2792 37.4821H73.2256V49.4286H61.2792V37.4821ZM61.2792 25.5357H73.2256V37.4821H61.2792V25.5357ZM73.2256 25.5357H85.172V37.4821H73.2256V25.5357ZM85.172 25.5357H97.1185V37.4821H85.172V25.5357ZM85.172 37.4821H97.1185V49.4286H85.172V37.4821ZM73.2256 37.4821H85.172V49.4286H73.2256V37.4821ZM85.172 49.4286H97.1185V61.375H85.172V49.4286ZM97.1185 37.4821H109.065V49.4286H97.1185V37.4821ZM97.1185 49.4286H109.065V61.375H97.1185V49.4286ZM97.1185 109.161H109.065V121.107H97.1185V109.161ZM97.1185 121.107H109.065V133.054H97.1185V121.107ZM85.172 121.107H97.1185V133.054H85.172V121.107ZM85.172 109.161H97.1185V121.107H85.172V109.161ZM73.2256 121.107H85.172V133.054H73.2256V121.107ZM85.172 133.054H97.1185V145H85.172V133.054ZM73.2256 133.054H85.172V145H73.2256V133.054ZM61.2792 133.054H73.2256V145H61.2792V133.054ZM61.2792 121.107H73.2256V133.054H61.2792V121.107ZM49.3327 133.054H61.2792V145H49.3327V133.054ZM37.3863 133.054H49.3327V145H37.3863V133.054ZM37.3863 121.107H49.3327V133.054H37.3863V121.107ZM49.3327 121.107H61.2792V133.054H49.3327V121.107ZM49.3327 109.161H61.2792V121.107H49.3327V109.161ZM37.3863 109.161H49.3327V121.107H37.3863V109.161ZM25.4399 121.107H37.3863V133.054H25.4399V121.107ZM25.4399 109.161H37.3863V121.107H25.4399V109.161ZM25.4399 97.2143H37.3863V109.161H25.4399V97.2143ZM25.4399 85.2679H37.3863V97.2143H25.4399V85.2679ZM25.4399 73.3214H37.3863V85.2679H25.4399V73.3214ZM25.4399 61.375H37.3863V73.3214H25.4399V61.375ZM25.4399 49.4286H37.3863V61.375H25.4399V49.4286ZM37.3863 49.4286H49.3327V61.375H37.3863V49.4286ZM25.4399 37.4821H37.3863V49.4286H25.4399V37.4821ZM49.3327 49.4286H61.2792V61.375H49.3327V49.4286ZM37.3863 61.375H49.3327V73.3214H37.3863V61.375ZM37.3863 73.3214H49.3327V85.2679H37.3863V73.3214ZM37.3863 85.2679H49.3327V97.2143H37.3863V85.2679ZM37.3863 97.2143H49.3327V109.161H37.3863V97.2143ZM125.502 133.054H137.449V145H125.502V133.054ZM137.449 133.054H149.395V145H137.449V133.054ZM137.449 121.107H149.395V133.054H137.449V121.107ZM137.449 109.161H149.395V121.107H137.449V109.161ZM137.449 97.2143H149.395V109.161H137.449V97.2143ZM137.449 85.2679H149.395V97.2143H137.449V85.2679ZM137.449 73.3214H149.395V85.2679H137.449V73.3214ZM125.502 73.3214H137.449V85.2679H125.502V73.3214ZM125.502 85.2679H137.449V97.2143H125.502V85.2679ZM125.502 97.2143H137.449V109.161H125.502V97.2143ZM125.502 109.161H137.449V121.107H125.502V109.161ZM125.502 121.107H137.449V133.054H125.502V121.107ZM125.502 61.375H137.449V73.3214H125.502V61.375ZM137.449 61.375H149.395V73.3214H137.449V61.375ZM137.449 49.4286H149.395V61.375H137.449V49.4286ZM137.449 37.4821H149.395V49.4286H137.449V37.4821ZM137.449 25.5357H149.395V37.4821H137.449V25.5357ZM125.502 25.5357H137.449V37.4821H125.502V25.5357ZM125.502 37.4821H137.449V49.4286H125.502V37.4821ZM125.502 49.4286H137.449V61.375H125.502V49.4286ZM189.788 37.4821H201.734V49.4286H189.788V37.4821ZM201.734 37.4821H213.681V49.4286H201.734V37.4821ZM201.734 25.5357H213.681V37.4821H201.734V25.5357ZM213.681 37.4821H225.627V49.4286H213.681V37.4821ZM213.681 49.4286H225.627V61.375H213.681V49.4286ZM225.627 49.4286H237.574V61.375H225.627V49.4286ZM201.734 49.4286H213.681V61.375H201.734V49.4286ZM189.788 49.4286H201.734V61.375H189.788V49.4286ZM177.841 49.4286H189.788V61.375H177.841V49.4286ZM177.841 61.375H189.788V73.3214H177.841V61.375ZM165.895 61.375H177.841V73.3214H165.895V61.375ZM189.788 61.375H201.734V73.3214H189.788V61.375ZM177.841 73.3214H189.788V85.2679H177.841V73.3214ZM177.841 85.2679H189.788V97.2143H177.841V85.2679ZM177.841 97.2143H189.788V109.161H177.841V97.2143ZM189.788 97.2143H201.734V109.161H189.788V97.2143ZM201.734 97.2143H213.681V109.161H201.734V97.2143ZM213.681 97.2143H225.627V109.161H213.681V97.2143ZM225.627 97.2143H237.574V109.161H225.627V97.2143ZM237.574 97.2143H249.52V109.161H237.574V97.2143ZM237.574 85.2679H249.52V97.2143H237.574V85.2679ZM237.574 73.3214H249.52V85.2679H237.574V73.3214ZM237.574 61.375H249.52V73.3214H237.574V61.375ZM225.627 61.375H237.574V73.3214H225.627V61.375ZM213.681 61.375H225.627V73.3214H213.681V61.375ZM225.627 73.3214H237.574V85.2679H225.627V73.3214ZM225.627 85.2679H237.574V97.2143H225.627V85.2679ZM225.627 109.161H237.574V121.107H225.627V109.161ZM237.574 109.161H249.52V121.107H237.574V109.161ZM237.574 121.107H249.52V133.054H237.574V121.107ZM237.574 133.054H249.52V145H237.574V133.054ZM225.627 133.054H237.574V145H225.627V133.054ZM225.627 121.107H237.574V133.054H225.627V121.107ZM213.681 109.161H225.627V121.107H213.681V109.161ZM201.734 109.161H213.681V121.107H201.734V109.161ZM189.788 109.161H201.734V121.107H189.788V109.161ZM177.841 109.161H189.788V121.107H177.841V109.161ZM177.841 121.107H189.788V133.054H177.841V121.107ZM177.841 133.054H189.788V145H177.841V133.054ZM165.895 133.054H177.841V145H165.895V133.054ZM165.895 121.107H177.841V133.054H165.895V121.107ZM165.895 109.161H177.841V121.107H165.895V109.161ZM165.895 97.2143H177.841V109.161H165.895V97.2143ZM165.895 85.2679H177.841V97.2143H165.895V85.2679ZM165.895 73.3214H177.841V85.2679H165.895V73.3214ZM289.85 25.5357H301.797V37.4821H289.85V25.5357ZM277.904 25.5357H289.85V37.4821H277.904V25.5357ZM277.904 37.4821H289.85V49.4286H277.904V37.4821ZM289.85 37.4821H301.797V49.4286H289.85V37.4821ZM301.797 37.4821H313.743V49.4286H301.797V37.4821ZM301.797 25.5357H313.743V37.4821H301.797V25.5357ZM313.743 25.5357H325.69V37.4821H313.743V25.5357ZM325.69 25.5357H337.636V37.4821H325.69V25.5357ZM325.69 37.4821H337.636V49.4286H325.69V37.4821ZM313.743 37.4821H325.69V49.4286H313.743V37.4821ZM313.743 49.4286H325.69V61.375H313.743V49.4286ZM325.69 49.4286H337.636V61.375H325.69V49.4286ZM337.636 37.4821H349.583V49.4286H337.636V37.4821ZM337.636 49.4286H349.583V61.375H337.636V49.4286ZM337.636 61.375H349.583V73.3214H337.636V61.375ZM337.636 73.3214H349.583V85.2679H337.636V73.3214ZM337.636 85.2679H349.583V97.2143H337.636V85.2679ZM337.636 97.2143H349.583V109.161H337.636V97.2143ZM337.636 109.161H349.583V121.107H337.636V109.161ZM337.636 121.107H349.583V133.054H337.636V121.107ZM325.69 121.107H337.636V133.054H325.69V121.107ZM325.69 109.161H337.636V121.107H325.69V109.161ZM325.69 97.2143H337.636V109.161H325.69V97.2143ZM325.69 85.2679H337.636V97.2143H325.69V85.2679ZM325.69 73.3214H337.636V85.2679H325.69V73.3214ZM325.69 61.375H337.636V73.3214H325.69V61.375ZM313.743 109.161H325.69V121.107H313.743V109.161ZM313.743 121.107H325.69V133.054H313.743V121.107ZM325.69 133.054H337.636V145H325.69V133.054ZM313.743 133.054H325.69V145H313.743V133.054ZM301.797 133.054H313.743V145H301.797V133.054ZM301.797 121.107H313.743V133.054H301.797V121.107ZM289.85 133.054H301.797V145H289.85V133.054ZM277.904 133.054H289.85V145H277.904V133.054ZM277.904 121.107H289.85V133.054H277.904V121.107ZM289.85 121.107H301.797V133.054H289.85V121.107ZM289.85 109.161H301.797V121.107H289.85V109.161ZM277.904 109.161H289.85V121.107H277.904V109.161ZM265.958 121.107H277.904V133.054H265.958V121.107ZM265.958 109.161H277.904V121.107H265.958V109.161ZM265.958 97.2143H277.904V109.161H265.958V97.2143ZM265.958 85.2679H277.904V97.2143H265.958V85.2679ZM265.958 73.3214H277.904V85.2679H265.958V73.3214ZM265.958 61.375H277.904V73.3214H265.958V61.375ZM265.958 49.4286H277.904V61.375H265.958V49.4286ZM277.904 49.4286H289.85V61.375H277.904V49.4286ZM265.958 37.4821H277.904V49.4286H265.958V37.4821ZM289.85 49.4286H301.797V61.375H289.85V49.4286ZM277.904 61.375H289.85V73.3214H277.904V61.375ZM277.904 73.3214H289.85V85.2679H277.904V73.3214ZM277.904 85.2679H289.85V97.2143H277.904V85.2679ZM277.904 97.2143H289.85V109.161H277.904V97.2143Z" fill="white"/>
</g>
<defs>
<filter id="filter0_d_774_1122" x="0.439453" y="0.535706" width="374.144" height="169.464" filterUnits="userSpaceOnUse" color-interpolation-filters="sRGB">
<feFlood flood-opacity="0" result="BackgroundImageFix"/>
<feColorMatrix in="SourceAlpha" type="matrix" values="0 0 0 0 0 0 0 0 0 0 0 0 0 0 0 0 0 0 127 0" result="hardAlpha"/>
<feOffset/>
<feGaussianBlur stdDeviation="12.5"/>
<feComposite in2="hardAlpha" operator="out"/>
<feColorMatrix type="matrix" values="0 0 0 0 1 0 0 0 0 1 0 0 0 0 1 0 0 0 0.4 0"/>
<feBlend mode="normal" in2="BackgroundImageFix" result="effect1_dropShadow_774_1122"/>
<feBlend mode="normal" in="SourceGraphic" in2="effect1_dropShadow_774_1122" result="shape"/>
</filter>
</defs>
</svg>
