<svg width="474" height="170" viewBox="0 0 474 170" fill="none" xmlns="http://www.w3.org/2000/svg">
<g filter="url(#filter0_d_774_1120)">
<path d="M25.0175 25.5357H36.9639V37.4821H25.0175V25.5357ZM36.9639 25.5357H48.9104V37.4821H36.9639V25.5357ZM36.9639 37.4821H48.9104V49.4286H36.9639V37.4821ZM36.9639 49.4286H48.9104V61.375H36.9639V49.4286ZM36.9639 61.375H48.9104V73.3214H36.9639V61.375ZM25.0175 49.4286H36.9639V61.375H25.0175V49.4286ZM25.0175 37.4821H36.9639V49.4286H25.0175V37.4821ZM25.0175 61.375H36.9639V73.3214H25.0175V61.375ZM25.0175 73.3214H36.9639V85.2679H25.0175V73.3214ZM25.0175 97.2143H36.9639V109.161H25.0175V97.2143ZM25.0175 85.2679H36.9639V97.2143H25.0175V85.2679ZM36.9639 73.3214H48.9104V85.2679H36.9639V73.3214ZM36.9639 85.2679H48.9104V97.2143H36.9639V85.2679ZM36.9639 97.2143H48.9104V109.161H36.9639V97.2143ZM36.9639 109.161H48.9104V121.107H36.9639V109.161ZM25.0175 109.161H36.9639V121.107H25.0175V109.161ZM25.0175 133.054H36.9639V145H25.0175V133.054ZM36.9639 133.054H48.9104V145H36.9639V133.054ZM36.9639 121.107H48.9104V133.054H36.9639V121.107ZM25.0175 121.107H36.9639V133.054H25.0175V121.107ZM96.6961 133.054H108.643V145H96.6961V133.054ZM96.6961 121.107H108.643V133.054H96.6961V121.107ZM96.6961 109.161H108.643V121.107H96.6961V109.161ZM96.6961 97.2143H108.643V109.161H96.6961V97.2143ZM96.6961 85.2679H108.643V97.2143H96.6961V85.2679ZM96.6961 73.3214H108.643V85.2679H96.6961V73.3214ZM96.6961 25.5357H108.643V37.4821H96.6961V25.5357ZM84.7496 25.5357H96.6961V37.4821H84.7496V25.5357ZM84.7496 37.4821H96.6961V49.4286H84.7496V37.4821ZM84.7496 49.4286H96.6961V61.375H84.7496V49.4286ZM84.7496 61.375H96.6961V73.3214H84.7496V61.375ZM96.6961 61.375H108.643V73.3214H96.6961V61.375ZM96.6961 49.4286H108.643V61.375H96.6961V49.4286ZM96.6961 37.4821H108.643V49.4286H96.6961V37.4821ZM84.7496 73.3214H96.6961V85.2679H84.7496V73.3214ZM84.7496 121.107H96.6961V133.054H84.7496V121.107ZM84.7496 109.161H96.6961V121.107H84.7496V109.161ZM84.7496 97.2143H96.6961V109.161H84.7496V97.2143ZM84.7496 85.2679H96.6961V97.2143H84.7496V85.2679ZM84.7496 133.054H96.6961V145H84.7496V133.054ZM72.8032 73.3214H84.7496V85.2679H72.8032V73.3214ZM60.8568 73.3214H72.8032V85.2679H60.8568V73.3214ZM48.9104 73.3214H60.8568V85.2679H48.9104V73.3214ZM48.9104 85.2679H60.8568V97.2143H48.9104V85.2679ZM60.8568 85.2679H72.8032V97.2143H60.8568V85.2679ZM72.8032 85.2679H84.7496V97.2143H72.8032V85.2679ZM125.08 25.5357H137.026V37.4821H125.08V25.5357ZM137.026 25.5357H148.973V37.4821H137.026V25.5357ZM137.026 37.4821H148.973V49.4286H137.026V37.4821ZM137.026 49.4286H148.973V61.375H137.026V49.4286ZM137.026 61.375H148.973V73.3214H137.026V61.375ZM125.08 61.375H137.026V73.3214H125.08V61.375ZM125.08 49.4286H137.026V61.375H125.08V49.4286ZM125.08 37.4821H137.026V49.4286H125.08V37.4821ZM125.08 73.3214H137.026V85.2679H125.08V73.3214ZM125.08 85.2679H137.026V97.2143H125.08V85.2679ZM125.08 97.2143H137.026V109.161H125.08V97.2143ZM137.026 85.2679H148.973V97.2143H137.026V85.2679ZM137.026 73.3214H148.973V85.2679H137.026V73.3214ZM137.026 97.2143H148.973V109.161H137.026V97.2143ZM137.026 109.161H148.973V121.107H137.026V109.161ZM125.08 121.107H137.026V133.054H125.08V121.107ZM125.08 109.161H137.026V121.107H125.08V109.161ZM125.08 133.054H137.026V145H125.08V133.054ZM137.026 133.054H148.973V145H137.026V133.054ZM137.026 121.107H148.973V133.054H137.026V121.107ZM148.973 133.054H160.919V145H148.973V133.054ZM160.919 133.054H172.866V145H160.919V133.054ZM172.866 133.054H184.812V145H172.866V133.054ZM172.866 121.107H184.812V133.054H172.866V121.107ZM160.919 121.107H172.866V133.054H160.919V121.107ZM148.973 121.107H160.919V133.054H148.973V121.107ZM148.973 25.5357H160.919V37.4821H148.973V25.5357ZM160.919 25.5357H172.866V37.4821H160.919V25.5357ZM172.866 25.5357H184.812V37.4821H172.866V25.5357ZM184.812 25.5357H196.759V37.4821H184.812V25.5357ZM172.866 37.4821H184.812V49.4286H172.866V37.4821ZM160.919 37.4821H172.866V49.4286H160.919V37.4821ZM148.973 37.4821H160.919V49.4286H148.973V37.4821ZM148.973 85.2679H160.919V97.2143H148.973V85.2679ZM160.919 73.3214H172.866V85.2679H160.919V73.3214ZM148.973 73.3214H160.919V85.2679H148.973V73.3214ZM160.919 85.2679H172.866V97.2143H160.919V85.2679ZM184.812 37.4821H196.759V49.4286H184.812V37.4821ZM184.812 121.107H196.759V133.054H184.812V121.107ZM184.812 133.054H196.759V145H184.812V133.054ZM172.866 73.3214H184.812V85.2679H172.866V73.3214ZM172.866 85.2679H184.812V97.2143H172.866V85.2679ZM213.165 25.5357H225.111V37.4821H213.165V25.5357ZM225.111 25.5357H237.058V37.4821H225.111V25.5357ZM225.111 37.4821H237.058V49.4286H225.111V37.4821ZM225.111 49.4286H237.058V61.375H225.111V49.4286ZM225.111 61.375H237.058V73.3214H225.111V61.375ZM213.165 61.375H225.111V73.3214H213.165V61.375ZM213.165 49.4286H225.111V61.375H213.165V49.4286ZM213.165 37.4821H225.111V49.4286H213.165V37.4821ZM213.165 73.3214H225.111V85.2679H213.165V73.3214ZM213.165 85.2679H225.111V97.2143H213.165V85.2679ZM213.165 97.2143H225.111V109.161H213.165V97.2143ZM225.111 85.2679H237.058V97.2143H225.111V85.2679ZM225.111 73.3214H237.058V85.2679H225.111V73.3214ZM225.111 97.2143H237.058V109.161H225.111V97.2143ZM225.111 109.161H237.058V121.107H225.111V109.161ZM213.165 121.107H225.111V133.054H213.165V121.107ZM213.165 109.161H225.111V121.107H213.165V109.161ZM213.165 133.054H225.111V145H213.165V133.054ZM225.111 133.054H237.058V145H225.111V133.054ZM225.111 121.107H237.058V133.054H225.111V121.107ZM237.058 133.054H249.004V145H237.058V133.054ZM249.004 133.054H260.951V145H249.004V133.054ZM260.951 133.054H272.897V145H260.951V133.054ZM260.951 121.107H272.897V133.054H260.951V121.107ZM249.004 121.107H260.951V133.054H249.004V121.107ZM237.058 121.107H249.004V133.054H237.058V121.107ZM289.273 25.5357H301.219V37.4821H289.273V25.5357ZM301.219 25.5357H313.165V37.4821H301.219V25.5357ZM301.219 37.4821H313.165V49.4286H301.219V37.4821ZM301.219 49.4286H313.165V61.375H301.219V49.4286ZM301.219 61.375H313.165V73.3214H301.219V61.375ZM289.273 61.375H301.219V73.3214H289.273V61.375ZM289.273 49.4286H301.219V61.375H289.273V49.4286ZM289.273 37.4821H301.219V49.4286H289.273V37.4821ZM289.273 73.3214H301.219V85.2679H289.273V73.3214ZM289.273 85.2679H301.219V97.2143H289.273V85.2679ZM289.273 97.2143H301.219V109.161H289.273V97.2143ZM301.219 85.2679H313.165V97.2143H301.219V85.2679ZM301.219 73.3214H313.165V85.2679H301.219V73.3214ZM301.219 97.2143H313.165V109.161H301.219V97.2143ZM301.219 109.161H313.165V121.107H301.219V109.161ZM289.273 121.107H301.219V133.054H289.273V121.107ZM289.273 109.161H301.219V121.107H289.273V109.161ZM289.273 133.054H301.219V145H289.273V133.054ZM301.219 133.054H313.165V145H301.219V133.054ZM301.219 121.107H313.165V133.054H301.219V121.107ZM313.165 133.054H325.112V145H313.165V133.054ZM325.112 133.054H337.058V145H325.112V133.054ZM337.058 133.054H349.005V145H337.058V133.054ZM337.058 121.107H349.005V133.054H337.058V121.107ZM325.112 121.107H337.058V133.054H325.112V121.107ZM313.165 121.107H325.112V133.054H313.165V121.107ZM389.273 25.5357H401.219V37.4821H389.273V25.5357ZM377.326 25.5357H389.273V37.4821H377.326V25.5357ZM377.326 37.4821H389.273V49.4286H377.326V37.4821ZM389.273 37.4821H401.219V49.4286H389.273V37.4821ZM401.219 37.4821H413.166V49.4286H401.219V37.4821ZM401.219 25.5357H413.166V37.4821H401.219V25.5357ZM413.166 25.5357H425.112V37.4821H413.166V25.5357ZM425.112 25.5357H437.059V37.4821H425.112V25.5357ZM425.112 37.4821H437.059V49.4286H425.112V37.4821ZM413.166 37.4821H425.112V49.4286H413.166V37.4821ZM413.166 49.4286H425.112V61.375H413.166V49.4286ZM425.112 49.4286H437.059V61.375H425.112V49.4286ZM437.059 37.4821H449.005V49.4286H437.059V37.4821ZM437.059 49.4286H449.005V61.375H437.059V49.4286ZM437.059 61.375H449.005V73.3214H437.059V61.375ZM437.059 73.3214H449.005V85.2679H437.059V73.3214ZM437.059 85.2679H449.005V97.2143H437.059V85.2679ZM437.059 97.2143H449.005V109.161H437.059V97.2143ZM437.059 109.161H449.005V121.107H437.059V109.161ZM437.059 121.107H449.005V133.054H437.059V121.107ZM425.112 121.107H437.059V133.054H425.112V121.107ZM425.112 109.161H437.059V121.107H425.112V109.161ZM425.112 97.2143H437.059V109.161H425.112V97.2143ZM425.112 85.2679H437.059V97.2143H425.112V85.2679ZM425.112 73.3214H437.059V85.2679H425.112V73.3214ZM425.112 61.375H437.059V73.3214H425.112V61.375ZM413.166 109.161H425.112V121.107H413.166V109.161ZM413.166 121.107H425.112V133.054H413.166V121.107ZM425.112 133.054H437.059V145H425.112V133.054ZM413.166 133.054H425.112V145H413.166V133.054ZM401.219 133.054H413.166V145H401.219V133.054ZM401.219 121.107H413.166V133.054H401.219V121.107ZM389.273 133.054H401.219V145H389.273V133.054ZM377.326 133.054H389.273V145H377.326V133.054ZM377.326 121.107H389.273V133.054H377.326V121.107ZM389.273 121.107H401.219V133.054H389.273V121.107ZM389.273 109.161H401.219V121.107H389.273V109.161ZM377.326 109.161H389.273V121.107H377.326V109.161ZM365.38 121.107H377.326V133.054H365.38V121.107ZM365.38 109.161H377.326V121.107H365.38V109.161ZM365.38 97.2143H377.326V109.161H365.38V97.2143ZM365.38 85.2679H377.326V97.2143H365.38V85.2679ZM365.38 73.3214H377.326V85.2679H365.38V73.3214ZM365.38 61.375H377.326V73.3214H365.38V61.375ZM365.38 49.4286H377.326V61.375H365.38V49.4286ZM377.326 49.4286H389.273V61.375H377.326V49.4286ZM365.38 37.4821H377.326V49.4286H365.38V37.4821ZM389.273 49.4286H401.219V61.375H389.273V49.4286ZM377.326 61.375H389.273V73.3214H377.326V61.375ZM377.326 73.3214H389.273V85.2679H377.326V73.3214ZM377.326 85.2679H389.273V97.2143H377.326V85.2679ZM377.326 97.2143H389.273V109.161H377.326V97.2143Z" fill="white"/>
</g>
<defs>
<filter id="filter0_d_774_1120" x="0.0175781" y="0.535706" width="473.987" height="169.464" filterUnits="userSpaceOnUse" color-interpolation-filters="sRGB">
<feFlood flood-opacity="0" result="BackgroundImageFix"/>
<feColorMatrix in="SourceAlpha" type="matrix" values="0 0 0 0 0 0 0 0 0 0 0 0 0 0 0 0 0 0 127 0" result="hardAlpha"/>
<feOffset/>
<feGaussianBlur stdDeviation="12.5"/>
<feComposite in2="hardAlpha" operator="out"/>
<feColorMatrix type="matrix" values="0 0 0 0 1 0 0 0 0 1 0 0 0 0 1 0 0 0 0.4 0"/>
<feBlend mode="normal" in2="BackgroundImageFix" result="effect1_dropShadow_774_1120"/>
<feBlend mode="normal" in="SourceGraphic" in2="effect1_dropShadow_774_1120" result="shape"/>
</filter>
</defs>
</svg>
