<svg width="410" height="170" viewBox="0 0 410 170" fill="none" xmlns="http://www.w3.org/2000/svg">
<g filter="url(#filter0_d_770_410)">
<path d="M25.0825 25.5357H37.0289V37.4821H25.0825V25.5357ZM37.0289 25.5357H48.9753V37.4821H37.0289V25.5357ZM37.0289 37.4821H48.9753V49.4286H37.0289V37.4821ZM37.0289 49.4286H48.9753V61.375H37.0289V49.4286ZM37.0289 61.375H48.9753V73.3214H37.0289V61.375ZM25.0825 49.4286H37.0289V61.375H25.0825V49.4286ZM25.0825 37.4821H37.0289V49.4286H25.0825V37.4821ZM25.0825 61.375H37.0289V73.3214H25.0825V61.375ZM25.0825 73.3214H37.0289V85.2679H25.0825V73.3214ZM25.0825 97.2143H37.0289V109.161H25.0825V97.2143ZM25.0825 85.2679H37.0289V97.2143H25.0825V85.2679ZM37.0289 73.3214H48.9753V85.2679H37.0289V73.3214ZM37.0289 85.2679H48.9753V97.2143H37.0289V85.2679ZM37.0289 97.2143H48.9753V109.161H37.0289V97.2143ZM37.0289 109.161H48.9753V121.107H37.0289V109.161ZM25.0825 109.161H37.0289V121.107H25.0825V109.161ZM25.0825 133.054H37.0289V145H25.0825V133.054ZM37.0289 133.054H48.9753V145H37.0289V133.054ZM37.0289 121.107H48.9753V133.054H37.0289V121.107ZM25.0825 121.107H37.0289V133.054H25.0825V121.107ZM96.761 133.054H108.707V145H96.761V133.054ZM96.761 121.107H108.707V133.054H96.761V121.107ZM96.761 109.161H108.707V121.107H96.761V109.161ZM96.761 97.2143H108.707V109.161H96.761V97.2143ZM96.761 85.2679H108.707V97.2143H96.761V85.2679ZM96.761 73.3214H108.707V85.2679H96.761V73.3214ZM96.761 25.5357H108.707V37.4821H96.761V25.5357ZM84.8146 25.5357H96.761V37.4821H84.8146V25.5357ZM84.8146 37.4821H96.761V49.4286H84.8146V37.4821ZM84.8146 49.4286H96.761V61.375H84.8146V49.4286ZM84.8146 61.375H96.761V73.3214H84.8146V61.375ZM96.761 61.375H108.707V73.3214H96.761V61.375ZM96.761 49.4286H108.707V61.375H96.761V49.4286ZM96.761 37.4821H108.707V49.4286H96.761V37.4821ZM84.8146 73.3214H96.761V85.2679H84.8146V73.3214ZM84.8146 121.107H96.761V133.054H84.8146V121.107ZM84.8146 109.161H96.761V121.107H84.8146V109.161ZM84.8146 97.2143H96.761V109.161H84.8146V97.2143ZM84.8146 85.2679H96.761V97.2143H84.8146V85.2679ZM84.8146 133.054H96.761V145H84.8146V133.054ZM72.8682 73.3214H84.8146V85.2679H72.8682V73.3214ZM60.9217 73.3214H72.8682V85.2679H60.9217V73.3214ZM48.9753 73.3214H60.9217V85.2679H48.9753V73.3214ZM48.9753 85.2679H60.9217V97.2143H48.9753V85.2679ZM60.9217 85.2679H72.8682V97.2143H60.9217V85.2679ZM72.8682 85.2679H84.8146V97.2143H72.8682V85.2679ZM149.038 25.5357H160.984V37.4821H149.038V25.5357ZM137.091 25.5357H149.038V37.4821H137.091V25.5357ZM137.091 37.4821H149.038V49.4286H137.091V37.4821ZM149.038 37.4821H160.984V49.4286H149.038V37.4821ZM160.984 37.4821H172.931V49.4286H160.984V37.4821ZM160.984 25.5357H172.931V37.4821H160.984V25.5357ZM172.931 25.5357H184.877V37.4821H172.931V25.5357ZM184.877 25.5357H196.824V37.4821H184.877V25.5357ZM184.877 37.4821H196.824V49.4286H184.877V37.4821ZM172.931 37.4821H184.877V49.4286H172.931V37.4821ZM172.931 49.4286H184.877V61.375H172.931V49.4286ZM184.877 49.4286H196.824V61.375H184.877V49.4286ZM196.824 37.4821H208.77V49.4286H196.824V37.4821ZM196.824 49.4286H208.77V61.375H196.824V49.4286ZM196.824 61.375H208.77V73.3214H196.824V61.375ZM196.824 73.3214H208.77V85.2679H196.824V73.3214ZM196.824 85.2679H208.77V97.2143H196.824V85.2679ZM196.824 97.2143H208.77V109.161H196.824V97.2143ZM196.824 109.161H208.77V121.107H196.824V109.161ZM196.824 121.107H208.77V133.054H196.824V121.107ZM184.877 121.107H196.824V133.054H184.877V121.107ZM184.877 109.161H196.824V121.107H184.877V109.161ZM184.877 97.2143H196.824V109.161H184.877V97.2143ZM184.877 85.2679H196.824V97.2143H184.877V85.2679ZM184.877 73.3214H196.824V85.2679H184.877V73.3214ZM184.877 61.375H196.824V73.3214H184.877V61.375ZM172.931 109.161H184.877V121.107H172.931V109.161ZM172.931 121.107H184.877V133.054H172.931V121.107ZM184.877 133.054H196.824V145H184.877V133.054ZM172.931 133.054H184.877V145H172.931V133.054ZM160.984 133.054H172.931V145H160.984V133.054ZM160.984 121.107H172.931V133.054H160.984V121.107ZM149.038 133.054H160.984V145H149.038V133.054ZM137.091 133.054H149.038V145H137.091V133.054ZM137.091 121.107H149.038V133.054H137.091V121.107ZM149.038 121.107H160.984V133.054H149.038V121.107ZM149.038 109.161H160.984V121.107H149.038V109.161ZM137.091 109.161H149.038V121.107H137.091V109.161ZM125.145 121.107H137.091V133.054H125.145V121.107ZM125.145 109.161H137.091V121.107H125.145V109.161ZM125.145 97.2143H137.091V109.161H125.145V97.2143ZM125.145 85.2679H137.091V97.2143H125.145V85.2679ZM125.145 73.3214H137.091V85.2679H125.145V73.3214ZM125.145 61.375H137.091V73.3214H125.145V61.375ZM125.145 49.4286H137.091V61.375H125.145V49.4286ZM137.091 49.4286H149.038V61.375H137.091V49.4286ZM125.145 37.4821H137.091V49.4286H125.145V37.4821ZM149.038 49.4286H160.984V61.375H149.038V49.4286ZM137.091 61.375H149.038V73.3214H137.091V61.375ZM137.091 73.3214H149.038V85.2679H137.091V73.3214ZM137.091 85.2679H149.038V97.2143H137.091V85.2679ZM137.091 97.2143H149.038V109.161H137.091V97.2143ZM225.208 25.5357H237.154V37.4821H225.208V25.5357ZM237.154 25.5357H249.1V37.4821H237.154V25.5357ZM237.154 37.4821H249.1V49.4286H237.154V37.4821ZM237.154 49.4286H249.1V61.375H237.154V49.4286ZM237.154 61.375H249.1V73.3214H237.154V61.375ZM225.208 61.375H237.154V73.3214H225.208V61.375ZM225.208 49.4286H237.154V61.375H225.208V49.4286ZM225.208 37.4821H237.154V49.4286H225.208V37.4821ZM225.208 73.3214H237.154V85.2679H225.208V73.3214ZM225.208 85.2679H237.154V97.2143H225.208V85.2679ZM225.208 97.2143H237.154V109.161H225.208V97.2143ZM237.154 85.2679H249.1V97.2143H237.154V85.2679ZM237.154 73.3214H249.1V85.2679H237.154V73.3214ZM237.154 97.2143H249.1V109.161H237.154V97.2143ZM237.154 109.161H249.1V121.107H237.154V109.161ZM225.208 121.107H237.154V133.054H225.208V121.107ZM225.208 109.161H237.154V121.107H225.208V109.161ZM225.208 133.054H237.154V145H225.208V133.054ZM237.154 133.054H249.1V145H237.154V133.054ZM237.154 121.107H249.1V133.054H237.154V121.107ZM249.1 133.054H261.047V145H249.1V133.054ZM261.047 133.054H272.993V145H261.047V133.054ZM272.993 133.054H284.94V145H272.993V133.054ZM272.993 121.107H284.94V133.054H272.993V121.107ZM261.047 121.107H272.993V133.054H261.047V121.107ZM249.1 121.107H261.047V133.054H249.1V121.107ZM325.208 37.4821H337.154V49.4286H325.208V37.4821ZM337.154 37.4821H349.101V49.4286H337.154V37.4821ZM337.154 25.5357H349.101V37.4821H337.154V25.5357ZM349.101 37.4821H361.047V49.4286H349.101V37.4821ZM349.101 49.4286H361.047V61.375H349.101V49.4286ZM361.047 49.4286H372.994V61.375H361.047V49.4286ZM337.154 49.4286H349.101V61.375H337.154V49.4286ZM325.208 49.4286H337.154V61.375H325.208V49.4286ZM313.261 49.4286H325.208V61.375H313.261V49.4286ZM313.261 61.375H325.208V73.3214H313.261V61.375ZM301.315 61.375H313.261V73.3214H301.315V61.375ZM325.208 61.375H337.154V73.3214H325.208V61.375ZM313.261 73.3214H325.208V85.2679H313.261V73.3214ZM313.261 85.2679H325.208V97.2143H313.261V85.2679ZM313.261 97.2143H325.208V109.161H313.261V97.2143ZM325.208 97.2143H337.154V109.161H325.208V97.2143ZM337.154 97.2143H349.101V109.161H337.154V97.2143ZM349.101 97.2143H361.047V109.161H349.101V97.2143ZM361.047 97.2143H372.994V109.161H361.047V97.2143ZM372.994 97.2143H384.94V109.161H372.994V97.2143ZM372.994 85.2679H384.94V97.2143H372.994V85.2679ZM372.994 73.3214H384.94V85.2679H372.994V73.3214ZM372.994 61.375H384.94V73.3214H372.994V61.375ZM361.047 61.375H372.994V73.3214H361.047V61.375ZM349.101 61.375H361.047V73.3214H349.101V61.375ZM361.047 73.3214H372.994V85.2679H361.047V73.3214ZM361.047 85.2679H372.994V97.2143H361.047V85.2679ZM361.047 109.161H372.994V121.107H361.047V109.161ZM372.994 109.161H384.94V121.107H372.994V109.161ZM372.994 121.107H384.94V133.054H372.994V121.107ZM372.994 133.054H384.94V145H372.994V133.054ZM361.047 133.054H372.994V145H361.047V133.054ZM361.047 121.107H372.994V133.054H361.047V121.107ZM349.101 109.161H361.047V121.107H349.101V109.161ZM337.154 109.161H349.101V121.107H337.154V109.161ZM325.208 109.161H337.154V121.107H325.208V109.161ZM313.261 109.161H325.208V121.107H313.261V109.161ZM313.261 121.107H325.208V133.054H313.261V121.107ZM313.261 133.054H325.208V145H313.261V133.054ZM301.315 133.054H313.261V145H301.315V133.054ZM301.315 121.107H313.261V133.054H301.315V121.107ZM301.315 109.161H313.261V121.107H301.315V109.161ZM301.315 97.2143H313.261V109.161H301.315V97.2143ZM301.315 85.2679H313.261V97.2143H301.315V85.2679ZM301.315 73.3214H313.261V85.2679H301.315V73.3214Z" fill="white"/>
</g>
<defs>
<filter id="filter0_d_770_410" x="0.0820312" y="0.535706" width="409.858" height="169.464" filterUnits="userSpaceOnUse" color-interpolation-filters="sRGB">
<feFlood flood-opacity="0" result="BackgroundImageFix"/>
<feColorMatrix in="SourceAlpha" type="matrix" values="0 0 0 0 0 0 0 0 0 0 0 0 0 0 0 0 0 0 127 0" result="hardAlpha"/>
<feOffset/>
<feGaussianBlur stdDeviation="12.5"/>
<feComposite in2="hardAlpha" operator="out"/>
<feColorMatrix type="matrix" values="0 0 0 0 1 0 0 0 0 1 0 0 0 0 1 0 0 0 0.4 0"/>
<feBlend mode="normal" in2="BackgroundImageFix" result="effect1_dropShadow_770_410"/>
<feBlend mode="normal" in="SourceGraphic" in2="effect1_dropShadow_770_410" result="shape"/>
</filter>
</defs>
</svg>
