<svg width="1006" height="208" viewBox="0 0 1006 208" fill="none" xmlns="http://www.w3.org/2000/svg">
<g filter="url(#filter0_d_775_1131)">
<rect x="45" y="25" width="13" height="12" fill="white"/>
<rect x="58" y="25" width="13" height="12" fill="white"/>
<rect x="71" y="25" width="13" height="12" fill="white"/>
<rect x="84" y="25" width="13" height="12" fill="white"/>
<rect x="97" y="25" width="13" height="12" fill="white"/>
<rect x="110" y="25" width="13" height="12" fill="white"/>
<rect x="123" y="25" width="13" height="12" fill="white"/>
<rect x="136" y="25" width="13" height="12" fill="white"/>
<rect x="45" y="37" width="13" height="12" fill="white"/>
<rect x="25" y="110.375" width="13" height="12" fill="white"/>
<rect x="25" y="122.375" width="13" height="12" fill="white"/>
<rect x="25" y="134.375" width="13" height="12" fill="white"/>
<rect x="25" y="146.375" width="13" height="12" fill="white"/>
<rect x="51" y="146.375" width="13" height="12" fill="white"/>
<rect x="129" y="146.375" width="13" height="12" fill="white"/>
<rect x="51" y="158.375" width="13" height="12" fill="white"/>
<rect x="77" y="158.375" width="13" height="12" fill="white"/>
<rect x="103" y="158.375" width="13" height="12" fill="white"/>
<rect x="129" y="158.375" width="13" height="12" fill="white"/>
<rect x="64" y="170.375" width="13" height="12" fill="white"/>
<rect x="77" y="170.375" width="13" height="12" fill="white"/>
<rect x="90" y="170.375" width="13" height="12" fill="white"/>
<rect x="103" y="170.375" width="13" height="12" fill="white"/>
<rect x="116" y="170.375" width="13" height="12" fill="white"/>
<rect x="38" y="110.375" width="13" height="12" fill="white"/>
<rect x="38" y="122.375" width="13" height="12" fill="white"/>
<rect x="38" y="134.375" width="13" height="12" fill="white"/>
<rect x="38" y="146.375" width="13" height="12" fill="white"/>
<rect x="142" y="146.375" width="13" height="12" fill="white"/>
<rect x="38" y="158.375" width="13" height="12" fill="white"/>
<rect x="64" y="158.375" width="13" height="12" fill="white"/>
<rect x="90" y="158.375" width="13" height="12" fill="white"/>
<rect x="116" y="158.375" width="13" height="12" fill="white"/>
<rect x="142" y="158.375" width="13" height="12" fill="white"/>
<rect x="58" y="37" width="13" height="12" fill="white"/>
<rect x="71" y="37" width="13" height="12" fill="white"/>
<rect x="84" y="37" width="13" height="12" fill="white"/>
<rect x="97" y="37" width="13" height="12" fill="white"/>
<rect x="110" y="37" width="13" height="12" fill="white"/>
<rect x="123" y="37" width="13" height="12" fill="white"/>
<rect x="136" y="37" width="13" height="12" fill="white"/>
<rect x="245" y="37.6875" width="13" height="12" fill="white"/>
<rect x="245" y="25.6875" width="13" height="12" fill="white"/>
<rect x="232" y="49.6875" width="13" height="12" fill="white"/>
<rect x="232" y="61.6875" width="13" height="12" fill="white"/>
<rect x="219" y="73.6875" width="13" height="12" fill="white"/>
<rect x="219" y="85.6875" width="13" height="12" fill="white"/>
<rect x="206" y="97.6875" width="13" height="12" fill="white"/>
<rect x="206" y="109.688" width="13" height="12" fill="white"/>
<rect x="193" y="121.688" width="13" height="12" fill="white"/>
<rect x="193" y="133.688" width="13" height="12" fill="white"/>
<rect x="180" y="145.688" width="13" height="12" fill="white"/>
<rect x="180" y="157.688" width="13" height="12" fill="white"/>
<rect x="180" y="169.688" width="13" height="12" fill="white"/>
<rect x="258" y="37.6875" width="13" height="12" fill="white"/>
<rect x="258" y="25.6875" width="13" height="12" fill="white"/>
<rect x="245" y="49.6875" width="13" height="12" fill="white"/>
<rect x="245" y="61.6875" width="13" height="12" fill="white"/>
<rect x="232" y="73.6875" width="13" height="12" fill="white"/>
<rect x="232" y="85.6875" width="13" height="12" fill="white"/>
<rect x="219" y="97.6875" width="13" height="12" fill="white"/>
<rect x="219" y="109.688" width="13" height="12" fill="white"/>
<rect x="232" y="97.6875" width="13" height="12" fill="white"/>
<rect x="245" y="85.6875" width="13" height="12" fill="white"/>
<rect x="245" y="97.6875" width="13" height="12" fill="white"/>
<rect x="258" y="97.6875" width="13" height="12" fill="white"/>
<rect x="258" y="85.6875" width="13" height="12" fill="white"/>
<rect x="271" y="97.6875" width="13" height="12" fill="white"/>
<rect x="258" y="109.688" width="13" height="12" fill="white"/>
<rect x="271" y="109.688" width="13" height="12" fill="white"/>
<rect x="258" y="121.688" width="13" height="12" fill="white"/>
<rect x="271" y="121.688" width="13" height="12" fill="white"/>
<rect x="258" y="133.688" width="13" height="12" fill="white"/>
<rect x="271" y="133.688" width="13" height="12" fill="white"/>
<rect x="258" y="145.688" width="13" height="12" fill="white"/>
<rect x="271" y="145.688" width="13" height="12" fill="white"/>
<rect x="258" y="157.688" width="13" height="12" fill="white"/>
<rect x="271" y="157.688" width="13" height="12" fill="white"/>
<rect x="271" y="169.688" width="13" height="12" fill="white"/>
<rect x="284" y="157.688" width="13" height="12" fill="white"/>
<rect x="284" y="169.688" width="13" height="12" fill="white"/>
<rect x="297" y="169.688" width="13" height="12" fill="white"/>
<rect x="310" y="157.688" width="13" height="12" fill="white"/>
<rect x="323" y="145.688" width="13" height="12" fill="white"/>
<rect x="336" y="133.688" width="13" height="12" fill="white"/>
<rect x="297" y="157.688" width="13" height="12" fill="white"/>
<rect x="310" y="145.688" width="13" height="12" fill="white"/>
<rect x="323" y="133.688" width="13" height="12" fill="white"/>
<rect x="336" y="121.688" width="13" height="12" fill="white"/>
<rect x="206" y="121.688" width="13" height="12" fill="white"/>
<rect x="206" y="133.688" width="13" height="12" fill="white"/>
<rect x="193" y="145.688" width="13" height="12" fill="white"/>
<rect x="193" y="157.688" width="13" height="12" fill="white"/>
<rect x="193" y="169.688" width="13" height="12" fill="white"/>
<rect x="413" y="133.688" width="13" height="12" fill="white"/>
<rect x="413" y="121.688" width="13" height="12" fill="white"/>
<rect x="426" y="109.688" width="13" height="12" fill="white"/>
<rect x="387" y="25.6875" width="13" height="12" fill="white"/>
<rect x="387" y="37.6875" width="13" height="12" fill="white"/>
<rect x="387" y="49.6875" width="13" height="12" fill="white"/>
<rect x="387" y="61.6875" width="13" height="12" fill="white"/>
<rect x="387" y="73.6875" width="13" height="12" fill="white"/>
<rect x="387" y="85.6875" width="13" height="12" fill="white"/>
<rect x="387" y="97.6875" width="13" height="12" fill="white"/>
<rect x="387" y="109.688" width="13" height="12" fill="white"/>
<rect x="387" y="121.688" width="13" height="12" fill="white"/>
<rect x="387" y="133.688" width="13" height="12" fill="white"/>
<rect x="387" y="145.688" width="13" height="12" fill="white"/>
<rect x="387" y="157.688" width="13" height="12" fill="white"/>
<rect x="387" y="169.688" width="13" height="12" fill="white"/>
<rect x="400" y="25.6875" width="13" height="12" fill="white"/>
<rect x="400" y="37.6875" width="13" height="12" fill="white"/>
<rect x="400" y="49.6875" width="13" height="12" fill="white"/>
<rect x="400" y="145.688" width="13" height="12" fill="white"/>
<rect x="400" y="157.688" width="13" height="12" fill="white"/>
<rect x="400" y="169.688" width="13" height="12" fill="white"/>
<rect x="374" y="133.688" width="13" height="12" fill="white"/>
<rect x="374" y="121.688" width="13" height="12" fill="white"/>
<rect x="374" y="109.688" width="13" height="12" fill="white"/>
<rect x="374" y="97.6875" width="13" height="12" fill="white"/>
<rect x="374" y="85.6875" width="13" height="12" fill="white"/>
<rect x="374" y="73.6875" width="13" height="12" fill="white"/>
<rect x="374" y="61.6875" width="13" height="12" fill="white"/>
<rect x="464" y="112.688" width="13" height="12" fill="white"/>
<rect x="464" y="124.688" width="13" height="12" fill="white"/>
<rect x="464" y="136.688" width="13" height="12" fill="white"/>
<rect x="490" y="136.688" width="13" height="12" fill="white"/>
<rect x="542" y="136.688" width="13" height="12" fill="white"/>
<rect x="490" y="148.688" width="13" height="12" fill="white"/>
<rect x="516" y="148.688" width="13" height="12" fill="white"/>
<rect x="542" y="148.688" width="13" height="12" fill="white"/>
<rect x="503" y="160.688" width="13" height="12" fill="white"/>
<rect x="516" y="160.688" width="13" height="12" fill="white"/>
<rect x="529" y="160.688" width="13" height="12" fill="white"/>
<rect x="477" y="112.688" width="13" height="12" fill="white"/>
<rect x="477" y="124.688" width="13" height="12" fill="white"/>
<rect x="477" y="136.688" width="13" height="12" fill="white"/>
<rect x="555" y="136.688" width="13" height="12" fill="white"/>
<rect x="477" y="148.688" width="13" height="12" fill="white"/>
<rect x="503" y="148.688" width="13" height="12" fill="white"/>
<rect x="529" y="148.688" width="13" height="12" fill="white"/>
<rect x="555" y="148.688" width="13" height="12" fill="white"/>
<rect x="470" y="46.6875" width="13" height="12" fill="white"/>
<rect x="483" y="46.6875" width="13" height="12" fill="white"/>
<rect x="496" y="46.6875" width="13" height="12" fill="white"/>
<rect x="509" y="46.6875" width="13" height="12" fill="white"/>
<rect x="522" y="46.6875" width="13" height="12" fill="white"/>
<rect x="535" y="46.6875" width="13" height="12" fill="white"/>
<rect x="548" y="46.6875" width="13" height="12" fill="white"/>
<rect x="470" y="34.6875" width="13" height="12" fill="white"/>
<rect x="483" y="34.6875" width="13" height="12" fill="white"/>
<rect x="496" y="34.6875" width="13" height="12" fill="white"/>
<rect x="509" y="34.6875" width="13" height="12" fill="white"/>
<rect x="522" y="34.6875" width="13" height="12" fill="white"/>
<rect x="535" y="34.6875" width="13" height="12" fill="white"/>
<rect x="548" y="34.6875" width="13" height="12" fill="white"/>
<rect x="593" y="49.6875" width="13" height="12" fill="white"/>
<rect x="606" y="49.6875" width="13" height="12" fill="white"/>
<rect x="619" y="49.6875" width="13" height="12" fill="white"/>
<rect x="632" y="49.6875" width="13" height="12" fill="white"/>
<rect x="645" y="49.6875" width="13" height="12" fill="white"/>
<rect x="658" y="49.6875" width="13" height="12" fill="white"/>
<rect x="671" y="49.6875" width="13" height="12" fill="white"/>
<rect x="658" y="169.688" width="13" height="12" fill="white"/>
<rect x="645" y="169.688" width="13" height="12" fill="white"/>
<rect x="684" y="49.6875" width="13" height="12" fill="white"/>
<rect x="671" y="169.688" width="13" height="12" fill="white"/>
<rect x="697" y="49.6875" width="13" height="12" fill="white"/>
<rect x="684" y="169.688" width="13" height="12" fill="white"/>
<rect x="710" y="49.6875" width="13" height="12" fill="white"/>
<rect x="697" y="169.688" width="13" height="12" fill="white"/>
<rect x="593" y="37.6875" width="13" height="12" fill="white"/>
<rect x="606" y="37.6875" width="13" height="12" fill="white"/>
<rect x="619" y="37.6875" width="13" height="12" fill="white"/>
<rect x="632" y="37.6875" width="13" height="12" fill="white"/>
<rect x="632" y="25.6875" width="13" height="12" fill="white"/>
<rect x="632" y="61.6875" width="13" height="12" fill="white"/>
<rect x="632" y="73.6875" width="13" height="12" fill="white"/>
<rect x="619" y="85.6875" width="13" height="12" fill="white"/>
<rect x="619" y="97.6875" width="13" height="12" fill="white"/>
<rect x="606" y="109.688" width="13" height="12" fill="white"/>
<rect x="606" y="121.688" width="13" height="12" fill="white"/>
<rect x="645" y="37.6875" width="13" height="12" fill="white"/>
<rect x="645" y="25.6875" width="13" height="12" fill="white"/>
<rect x="645" y="61.6875" width="13" height="12" fill="white"/>
<rect x="645" y="73.6875" width="13" height="12" fill="white"/>
<rect x="632" y="85.6875" width="13" height="12" fill="white"/>
<rect x="632" y="97.6875" width="13" height="12" fill="white"/>
<rect x="619" y="109.688" width="13" height="12" fill="white"/>
<rect x="632" y="109.688" width="13" height="12" fill="white"/>
<rect x="645" y="109.688" width="13" height="12" fill="white"/>
<rect x="645" y="97.6875" width="13" height="12" fill="white"/>
<rect x="658" y="97.6875" width="13" height="12" fill="white"/>
<rect x="671" y="97.6875" width="13" height="12" fill="white"/>
<rect x="671" y="85.6875" width="13" height="12" fill="white"/>
<rect x="684" y="97.6875" width="13" height="12" fill="white"/>
<rect x="684" y="85.6875" width="13" height="12" fill="white"/>
<rect x="697" y="97.6875" width="13" height="12" fill="white"/>
<rect x="710" y="97.6875" width="13" height="12" fill="white"/>
<rect x="658" y="109.688" width="13" height="12" fill="white"/>
<rect x="697" y="109.688" width="13" height="12" fill="white"/>
<rect x="710" y="109.688" width="13" height="12" fill="white"/>
<rect x="710" y="121.688" width="13" height="12" fill="white"/>
<rect x="710" y="133.688" width="13" height="12" fill="white"/>
<rect x="710" y="145.688" width="13" height="12" fill="white"/>
<rect x="710" y="157.688" width="13" height="12" fill="white"/>
<rect x="723" y="109.688" width="13" height="12" fill="white"/>
<rect x="723" y="121.688" width="13" height="12" fill="white"/>
<rect x="723" y="133.688" width="13" height="12" fill="white"/>
<rect x="723" y="145.688" width="13" height="12" fill="white"/>
<rect x="619" y="121.688" width="13" height="12" fill="white"/>
<rect x="658" y="37.6875" width="13" height="12" fill="white"/>
<rect x="671" y="37.6875" width="13" height="12" fill="white"/>
<rect x="658" y="157.688" width="13" height="12" fill="white"/>
<rect x="645" y="157.688" width="13" height="12" fill="white"/>
<rect x="684" y="37.6875" width="13" height="12" fill="white"/>
<rect x="671" y="157.688" width="13" height="12" fill="white"/>
<rect x="697" y="37.6875" width="13" height="12" fill="white"/>
<rect x="684" y="157.688" width="13" height="12" fill="white"/>
<rect x="710" y="37.6875" width="13" height="12" fill="white"/>
<rect x="697" y="157.688" width="13" height="12" fill="white"/>
<rect x="800" y="133.688" width="13" height="12" fill="white"/>
<rect x="800" y="121.688" width="13" height="12" fill="white"/>
<rect x="813" y="109.688" width="13" height="12" fill="white"/>
<rect x="774" y="25.6875" width="13" height="12" fill="white"/>
<rect x="774" y="37.6875" width="13" height="12" fill="white"/>
<rect x="774" y="49.6875" width="13" height="12" fill="white"/>
<rect x="774" y="61.6875" width="13" height="12" fill="white"/>
<rect x="774" y="73.6875" width="13" height="12" fill="white"/>
<rect x="774" y="85.6875" width="13" height="12" fill="white"/>
<rect x="774" y="97.6875" width="13" height="12" fill="white"/>
<rect x="774" y="109.688" width="13" height="12" fill="white"/>
<rect x="774" y="121.688" width="13" height="12" fill="white"/>
<rect x="774" y="133.688" width="13" height="12" fill="white"/>
<rect x="774" y="145.688" width="13" height="12" fill="white"/>
<rect x="774" y="157.688" width="13" height="12" fill="white"/>
<rect x="774" y="169.688" width="13" height="12" fill="white"/>
<rect x="787" y="25.6875" width="13" height="12" fill="white"/>
<rect x="787" y="37.6875" width="13" height="12" fill="white"/>
<rect x="787" y="49.6875" width="13" height="12" fill="white"/>
<rect x="787" y="145.688" width="13" height="12" fill="white"/>
<rect x="787" y="157.688" width="13" height="12" fill="white"/>
<rect x="787" y="169.688" width="13" height="12" fill="white"/>
<rect x="761" y="133.688" width="13" height="12" fill="white"/>
<rect x="761" y="121.688" width="13" height="12" fill="white"/>
<rect x="761" y="109.688" width="13" height="12" fill="white"/>
<rect x="761" y="97.6875" width="13" height="12" fill="white"/>
<rect x="761" y="85.6875" width="13" height="12" fill="white"/>
<rect x="761" y="73.6875" width="13" height="12" fill="white"/>
<rect x="761" y="61.6875" width="13" height="12" fill="white"/>
<rect x="851" y="61.6875" width="13" height="12" fill="white"/>
<rect x="864" y="61.6875" width="13" height="12" fill="white"/>
<rect x="877" y="61.6875" width="13" height="12" fill="white"/>
<rect x="890" y="49.6875" width="13" height="12" fill="white"/>
<rect x="903" y="49.6875" width="13" height="12" fill="white"/>
<rect x="916" y="61.6875" width="13" height="12" fill="white"/>
<rect x="929" y="61.6875" width="13" height="12" fill="white"/>
<rect x="942" y="61.6875" width="13" height="12" fill="white"/>
<rect x="851" y="49.6875" width="13" height="12" fill="white"/>
<rect x="864" y="49.6875" width="13" height="12" fill="white"/>
<rect x="877" y="49.6875" width="13" height="12" fill="white"/>
<rect x="903" y="37.6875" width="13" height="12" fill="white"/>
<rect x="903" y="25.6875" width="13" height="12" fill="white"/>
<rect x="890" y="61.6875" width="13" height="12" fill="white"/>
<rect x="903" y="73.6875" width="13" height="12" fill="white"/>
<rect x="903" y="85.6875" width="13" height="12" fill="white"/>
<rect x="903" y="97.6875" width="13" height="12" fill="white"/>
<rect x="903" y="109.688" width="13" height="12" fill="white"/>
<rect x="903" y="121.688" width="13" height="12" fill="white"/>
<rect x="903" y="133.688" width="13" height="12" fill="white"/>
<rect x="903" y="145.688" width="13" height="12" fill="white"/>
<rect x="903" y="157.688" width="13" height="12" fill="white"/>
<rect x="903" y="169.688" width="13" height="12" fill="white"/>
<rect x="877" y="169.688" width="13" height="12" fill="white"/>
<rect x="851" y="157.688" width="13" height="12" fill="white"/>
<rect x="851" y="145.688" width="13" height="12" fill="white"/>
<rect x="851" y="133.688" width="13" height="12" fill="white"/>
<rect x="877" y="121.688" width="13" height="12" fill="white"/>
<rect x="929" y="121.688" width="13" height="12" fill="white"/>
<rect x="942" y="133.688" width="13" height="12" fill="white"/>
<rect x="955" y="145.688" width="13" height="12" fill="white"/>
<rect x="916" y="37.6875" width="13" height="12" fill="white"/>
<rect x="916" y="25.6875" width="13" height="12" fill="white"/>
<rect x="903" y="61.6875" width="13" height="12" fill="white"/>
<rect x="916" y="73.6875" width="13" height="12" fill="white"/>
<rect x="916" y="85.6875" width="13" height="12" fill="white"/>
<rect x="916" y="97.6875" width="13" height="12" fill="white"/>
<rect x="916" y="109.688" width="13" height="12" fill="white"/>
<rect x="916" y="121.688" width="13" height="12" fill="white"/>
<rect x="916" y="133.688" width="13" height="12" fill="white"/>
<rect x="916" y="145.688" width="13" height="12" fill="white"/>
<rect x="916" y="157.688" width="13" height="12" fill="white"/>
<rect x="890" y="169.688" width="13" height="12" fill="white"/>
<rect x="864" y="169.688" width="13" height="12" fill="white"/>
<rect x="864" y="157.688" width="13" height="12" fill="white"/>
<rect x="864" y="145.688" width="13" height="12" fill="white"/>
<rect x="864" y="133.688" width="13" height="12" fill="white"/>
<rect x="864" y="121.688" width="13" height="12" fill="white"/>
<rect x="890" y="121.688" width="13" height="12" fill="white"/>
<rect x="942" y="121.688" width="13" height="12" fill="white"/>
<rect x="955" y="133.688" width="13" height="12" fill="white"/>
<rect x="968" y="145.688" width="13" height="12" fill="white"/>
<rect x="916" y="49.6875" width="13" height="12" fill="white"/>
<rect x="929" y="49.6875" width="13" height="12" fill="white"/>
<rect x="942" y="49.6875" width="13" height="12" fill="white"/>
</g>
<defs>
<filter id="filter0_d_775_1131" x="0" y="0" width="1006" height="207.375" filterUnits="userSpaceOnUse" color-interpolation-filters="sRGB">
<feFlood flood-opacity="0" result="BackgroundImageFix"/>
<feColorMatrix in="SourceAlpha" type="matrix" values="0 0 0 0 0 0 0 0 0 0 0 0 0 0 0 0 0 0 127 0" result="hardAlpha"/>
<feOffset/>
<feGaussianBlur stdDeviation="12.5"/>
<feComposite in2="hardAlpha" operator="out"/>
<feColorMatrix type="matrix" values="0 0 0 0 1 0 0 0 0 1 0 0 0 0 1 0 0 0 0.4 0"/>
<feBlend mode="normal" in2="BackgroundImageFix" result="effect1_dropShadow_775_1131"/>
<feBlend mode="normal" in="SourceGraphic" in2="effect1_dropShadow_775_1131" result="shape"/>
</filter>
</defs>
</svg>
