<svg width="1007" height="210" viewBox="0 0 1007 210" fill="none" xmlns="http://www.w3.org/2000/svg">
<g filter="url(#filter0_d_775_1131)">
<mask id="path-1-outside-1_775_1131" maskUnits="userSpaceOnUse" x="25" y="25" width="132" height="160" fill="black">
<rect fill="white" x="25" y="25" width="132" height="160"/>
<path d="M46 26H59V38H46V26Z"/>
<path d="M59 26H72V38H59V26Z"/>
<path d="M72 26H85V38H72V26Z"/>
<path d="M85 26H98V38H85V26Z"/>
<path d="M98 26H111V38H98V26Z"/>
<path d="M111 26H124V38H111V26Z"/>
<path d="M124 26H137V38H124V26Z"/>
<path d="M137 26H150V38H137V26Z"/>
<path d="M46 38H59V50H46V38Z"/>
<path d="M26 111.375H39V123.375H26V111.375Z"/>
<path d="M26 123.375H39V135.375H26V123.375Z"/>
<path d="M26 135.375H39V147.375H26V135.375Z"/>
<path d="M26 147.375H39V159.375H26V147.375Z"/>
<path d="M52 147.375H65V159.375H52V147.375Z"/>
<path d="M130 147.375H143V159.375H130V147.375Z"/>
<path d="M52 159.375H65V171.375H52V159.375Z"/>
<path d="M78 159.375H91V171.375H78V159.375Z"/>
<path d="M104 159.375H117V171.375H104V159.375Z"/>
<path d="M130 159.375H143V171.375H130V159.375Z"/>
<path d="M65 171.375H78V183.375H65V171.375Z"/>
<path d="M78 171.375H91V183.375H78V171.375Z"/>
<path d="M91 171.375H104V183.375H91V171.375Z"/>
<path d="M104 171.375H117V183.375H104V171.375Z"/>
<path d="M117 171.375H130V183.375H117V171.375Z"/>
<path d="M39 111.375H52V123.375H39V111.375Z"/>
<path d="M39 123.375H52V135.375H39V123.375Z"/>
<path d="M39 135.375H52V147.375H39V135.375Z"/>
<path d="M39 147.375H52V159.375H39V147.375Z"/>
<path d="M143 147.375H156V159.375H143V147.375Z"/>
<path d="M39 159.375H52V171.375H39V159.375Z"/>
<path d="M65 159.375H78V171.375H65V159.375Z"/>
<path d="M91 159.375H104V171.375H91V159.375Z"/>
<path d="M117 159.375H130V171.375H117V159.375Z"/>
<path d="M143 159.375H156V171.375H143V159.375Z"/>
<path d="M59 38H72V50H59V38Z"/>
<path d="M72 38H85V50H72V38Z"/>
<path d="M85 38H98V50H85V38Z"/>
<path d="M98 38H111V50H98V38Z"/>
<path d="M111 38H124V50H111V38Z"/>
<path d="M124 38H137V50H124V38Z"/>
<path d="M137 38H150V50H137V38Z"/>
</mask>
<path d="M46 26H59V38H46V26Z" fill="white"/>
<path d="M59 26H72V38H59V26Z" fill="white"/>
<path d="M72 26H85V38H72V26Z" fill="white"/>
<path d="M85 26H98V38H85V26Z" fill="white"/>
<path d="M98 26H111V38H98V26Z" fill="white"/>
<path d="M111 26H124V38H111V26Z" fill="white"/>
<path d="M124 26H137V38H124V26Z" fill="white"/>
<path d="M137 26H150V38H137V26Z" fill="white"/>
<path d="M46 38H59V50H46V38Z" fill="white"/>
<path d="M26 111.375H39V123.375H26V111.375Z" fill="white"/>
<path d="M26 123.375H39V135.375H26V123.375Z" fill="white"/>
<path d="M26 135.375H39V147.375H26V135.375Z" fill="white"/>
<path d="M26 147.375H39V159.375H26V147.375Z" fill="white"/>
<path d="M52 147.375H65V159.375H52V147.375Z" fill="white"/>
<path d="M130 147.375H143V159.375H130V147.375Z" fill="white"/>
<path d="M52 159.375H65V171.375H52V159.375Z" fill="white"/>
<path d="M78 159.375H91V171.375H78V159.375Z" fill="white"/>
<path d="M104 159.375H117V171.375H104V159.375Z" fill="white"/>
<path d="M130 159.375H143V171.375H130V159.375Z" fill="white"/>
<path d="M65 171.375H78V183.375H65V171.375Z" fill="white"/>
<path d="M78 171.375H91V183.375H78V171.375Z" fill="white"/>
<path d="M91 171.375H104V183.375H91V171.375Z" fill="white"/>
<path d="M104 171.375H117V183.375H104V171.375Z" fill="white"/>
<path d="M117 171.375H130V183.375H117V171.375Z" fill="white"/>
<path d="M39 111.375H52V123.375H39V111.375Z" fill="white"/>
<path d="M39 123.375H52V135.375H39V123.375Z" fill="white"/>
<path d="M39 135.375H52V147.375H39V135.375Z" fill="white"/>
<path d="M39 147.375H52V159.375H39V147.375Z" fill="white"/>
<path d="M143 147.375H156V159.375H143V147.375Z" fill="white"/>
<path d="M39 159.375H52V171.375H39V159.375Z" fill="white"/>
<path d="M65 159.375H78V171.375H65V159.375Z" fill="white"/>
<path d="M91 159.375H104V171.375H91V159.375Z" fill="white"/>
<path d="M117 159.375H130V171.375H117V159.375Z" fill="white"/>
<path d="M143 159.375H156V171.375H143V159.375Z" fill="white"/>
<path d="M59 38H72V50H59V38Z" fill="white"/>
<path d="M72 38H85V50H72V38Z" fill="white"/>
<path d="M85 38H98V50H85V38Z" fill="white"/>
<path d="M98 38H111V50H98V38Z" fill="white"/>
<path d="M111 38H124V50H111V38Z" fill="white"/>
<path d="M124 38H137V50H124V38Z" fill="white"/>
<path d="M137 38H150V50H137V38Z" fill="white"/>
<path d="M39 159.375H38.5V159.875H39V159.375ZM52 147.375H52.5V146.875H52V147.375ZM65 159.375H65.5V158.875H65V159.375ZM130 159.375V158.875H129.5V159.375H130ZM65 171.375H64.5V171.875H65V171.375ZM130 171.375V171.875H130.5V171.375H130ZM59 26H58.5V38H59H59.5V26H59ZM59 38V37.5H46V38V38.5H59V38ZM72 26H71.5V38H72H72.5V26H72ZM72 38V37.5H59V38V38.5H72V38ZM85 26H84.5V38H85H85.5V26H85ZM85 38V37.5H72V38V38.5H85V38ZM98 26H97.5V38H98H98.5V26H98ZM98 38V37.5H85V38V38.5H98V38ZM111 26H110.5V38H111H111.5V26H111ZM111 38V37.5H98V38V38.5H111V38ZM124 26H123.5V38H124H124.5V26H124ZM124 38V37.5H111V38V38.5H124V38ZM137 26H136.5V38H137H137.5V26H137ZM137 38V37.5H124V38V38.5H137V38ZM150 38V37.5H137V38V38.5H150V38ZM59 38H58.5V50H59H59.5V38H59ZM39 111.375H38.5V123.375H39H39.5V111.375H39ZM39 123.375V122.875H26V123.375V123.875H39V123.375ZM39 123.375H38.5V135.375H39H39.5V123.375H39ZM39 135.375V134.875H26V135.375V135.875H39V135.375ZM39 135.375H38.5V147.375H39H39.5V135.375H39ZM39 147.375V146.875H26V147.375V147.875H39V147.375ZM39 147.375H38.5V159.375H39H39.5V147.375H39ZM65 159.375V158.875H52V159.375V159.875H65V159.375ZM52 159.375H52.5V147.375H52H51.5V159.375H52ZM143 147.375H142.5V159.375H143H143.5V147.375H143ZM143 159.375V158.875H130V159.375V159.875H143V159.375ZM65 159.375H64.5V171.375H65H65.5V159.375H65ZM52 171.375H52.5V159.375H52H51.5V171.375H52ZM91 159.375H90.5V171.375H91H91.5V159.375H91ZM91 171.375V170.875H78V171.375V171.875H91V171.375ZM78 171.375H78.5V159.375H78H77.5V171.375H78ZM117 159.375H116.5V171.375H117H117.5V159.375H117ZM117 171.375V170.875H104V171.375V171.875H117V171.375ZM104 171.375H104.5V159.375H104H103.5V171.375H104ZM143 159.375H142.5V171.375H143H143.5V159.375H143ZM130 171.375H130.5V159.375H130H129.5V171.375H130ZM65 171.375V171.875H78V171.375V170.875H65V171.375ZM78 171.375H77.5V183.375H78H78.5V171.375H78ZM91 171.375H90.5V183.375H91H91.5V171.375H91ZM91 171.375V171.875H104V171.375V170.875H91V171.375ZM104 171.375H103.5V183.375H104H104.5V171.375H104ZM117 171.375H116.5V183.375H117H117.5V171.375H117ZM117 171.375V171.875H130V171.375V170.875H117V171.375ZM52 123.375V122.875H39V123.375V123.875H52V123.375ZM52 135.375V134.875H39V135.375V135.875H52V135.375ZM52 147.375V146.875H39V147.375V147.875H52V147.375ZM52 159.375V158.875H39V159.375V159.875H52V159.375ZM156 159.375V158.875H143V159.375V159.875H156V159.375ZM72 38H71.5V50H72H72.5V38H72ZM85 38H84.5V50H85H85.5V38H85ZM98 38H97.5V50H98H98.5V38H98ZM111 38H110.5V50H111H111.5V38H111ZM124 38H123.5V50H124H124.5V38H124ZM137 38H136.5V50H137H137.5V38H137ZM46 26V25H45V26H46ZM150 26H151V25H150V26ZM46 50H45V51H46V50ZM26 111.375V110.375H25V111.375H26ZM39 159.375H40V158.375H39V159.375ZM26 159.375H25V160.375H26V159.375ZM52 147.375H51V148.375H52V147.375ZM65 147.375H66V146.375H65V147.375ZM65 159.375H64V160.375H65V159.375ZM130 147.375V146.375H129V147.375H130ZM130 159.375V160.375H131V159.375H130ZM65 171.375H66V170.375H65V171.375ZM130 171.375V170.375H129V171.375H130ZM65 183.375H64V184.375H65V183.375ZM130 183.375V184.375H131V183.375H130ZM52 111.375H53V110.375H52V111.375ZM156 147.375H157V146.375H156V147.375ZM39 171.375H38V172.375H39V171.375ZM156 171.375V172.375H157V171.375H156ZM150 50V51H151V50H150ZM46 26V27H59V26V25H46V26ZM46 38H47V26H46H45V38H46ZM59 26V27H72V26V25H59V26ZM72 26V27H85V26V25H72V26ZM85 26V27H98V26V25H85V26ZM98 26V27H111V26V25H98V26ZM111 26V27H124V26V25H111V26ZM124 26V27H137V26V25H124V26ZM137 26V27H150V26V25H137V26ZM150 26H149V38H150H151V26H150ZM59 50V49H46V50V51H59V50ZM46 50H47V38H46H45V50H46ZM26 111.375V112.375H39V111.375V110.375H26V111.375ZM26 123.375H27V111.375H26H25V123.375H26ZM26 135.375H27V123.375H26H25V135.375H26ZM26 147.375H27V135.375H26H25V147.375H26ZM39 159.375V158.375H26V159.375V160.375H39V159.375ZM26 159.375H27V147.375H26H25V159.375H26ZM52 147.375V148.375H65V147.375V146.375H52V147.375ZM65 147.375H64V159.375H65H66V147.375H65ZM130 147.375V148.375H143V147.375V146.375H130V147.375ZM130 159.375H131V147.375H130H129V159.375H130ZM65 171.375V170.375H52V171.375V172.375H65V171.375ZM78 159.375V160.375H91V159.375V158.375H78V159.375ZM104 159.375V160.375H117V159.375V158.375H104V159.375ZM143 171.375V170.375H130V171.375V172.375H143V171.375ZM78 183.375V182.375H65V183.375V184.375H78V183.375ZM65 183.375H66V171.375H65H64V183.375H65ZM91 183.375V182.375H78V183.375V184.375H91V183.375ZM104 183.375V182.375H91V183.375V184.375H104V183.375ZM117 183.375V182.375H104V183.375V184.375H117V183.375ZM130 171.375H129V183.375H130H131V171.375H130ZM130 183.375V182.375H117V183.375V184.375H130V183.375ZM39 111.375V112.375H52V111.375V110.375H39V111.375ZM52 111.375H51V123.375H52H53V111.375H52ZM52 123.375H51V135.375H52H53V123.375H52ZM52 135.375H51V147.375H52H53V135.375H52ZM143 147.375V148.375H156V147.375V146.375H143V147.375ZM156 147.375H155V159.375H156H157V147.375H156ZM52 171.375V170.375H39V171.375V172.375H52V171.375ZM39 171.375H40V159.375H39H38V171.375H39ZM65 159.375V160.375H78V159.375V158.375H65V159.375ZM91 159.375V160.375H104V159.375V158.375H91V159.375ZM117 159.375V160.375H130V159.375V158.375H117V159.375ZM156 159.375H155V171.375H156H157V159.375H156ZM156 171.375V170.375H143V171.375V172.375H156V171.375ZM72 50V49H59V50V51H72V50ZM85 50V49H72V50V51H85V50ZM98 50V49H85V50V51H98V50ZM111 50V49H98V50V51H111V50ZM124 50V49H111V50V51H124V50ZM137 50V49H124V50V51H137V50ZM150 38H149V50H150H151V38H150ZM150 50V49H137V50V51H150V50Z" fill="white" mask="url(#path-1-outside-1_775_1131)"/>
<rect x="246" y="38.6875" width="13" height="12" fill="white"/>
<rect x="246" y="26.6875" width="13" height="12" fill="white"/>
<rect x="233" y="50.6875" width="13" height="12" fill="white"/>
<rect x="233" y="62.6875" width="13" height="12" fill="white"/>
<rect x="220" y="74.6875" width="13" height="12" fill="white"/>
<rect x="220" y="86.6875" width="13" height="12" fill="white"/>
<rect x="207" y="98.6875" width="13" height="12" fill="white"/>
<rect x="207" y="110.688" width="13" height="12" fill="white"/>
<rect x="194" y="122.688" width="13" height="12" fill="white"/>
<rect x="194" y="134.688" width="13" height="12" fill="white"/>
<rect x="181" y="146.688" width="13" height="12" fill="white"/>
<rect x="181" y="158.688" width="13" height="12" fill="white"/>
<rect x="181" y="170.688" width="13" height="12" fill="white"/>
<rect x="259" y="38.6875" width="13" height="12" fill="white"/>
<rect x="259" y="26.6875" width="13" height="12" fill="white"/>
<rect x="246" y="50.6875" width="13" height="12" fill="white"/>
<rect x="246" y="62.6875" width="13" height="12" fill="white"/>
<rect x="233" y="74.6875" width="13" height="12" fill="white"/>
<rect x="233" y="86.6875" width="13" height="12" fill="white"/>
<rect x="220" y="98.6875" width="13" height="12" fill="white"/>
<rect x="220" y="110.688" width="13" height="12" fill="white"/>
<rect x="233" y="98.6875" width="13" height="12" fill="white"/>
<rect x="246" y="86.6875" width="13" height="12" fill="white"/>
<rect x="246" y="98.6875" width="13" height="12" fill="white"/>
<rect x="259" y="98.6875" width="13" height="12" fill="white"/>
<rect x="259" y="86.6875" width="13" height="12" fill="white"/>
<rect x="272" y="98.6875" width="13" height="12" fill="white"/>
<rect x="259" y="110.688" width="13" height="12" fill="white"/>
<rect x="272" y="110.688" width="13" height="12" fill="white"/>
<rect x="259" y="122.688" width="13" height="12" fill="white"/>
<rect x="272" y="122.688" width="13" height="12" fill="white"/>
<rect x="259" y="134.688" width="13" height="12" fill="white"/>
<rect x="272" y="134.688" width="13" height="12" fill="white"/>
<rect x="259" y="146.688" width="13" height="12" fill="white"/>
<rect x="272" y="146.688" width="13" height="12" fill="white"/>
<rect x="259" y="158.688" width="13" height="12" fill="white"/>
<rect x="272" y="158.688" width="13" height="12" fill="white"/>
<rect x="272" y="170.688" width="13" height="12" fill="white"/>
<rect x="285" y="158.688" width="13" height="12" fill="white"/>
<rect x="285" y="170.688" width="13" height="12" fill="white"/>
<rect x="298" y="170.688" width="13" height="12" fill="white"/>
<rect x="311" y="158.688" width="13" height="12" fill="white"/>
<rect x="324" y="146.688" width="13" height="12" fill="white"/>
<rect x="337" y="134.688" width="13" height="12" fill="white"/>
<rect x="298" y="158.688" width="13" height="12" fill="white"/>
<rect x="311" y="146.688" width="13" height="12" fill="white"/>
<rect x="324" y="134.688" width="13" height="12" fill="white"/>
<rect x="337" y="122.688" width="13" height="12" fill="white"/>
<rect x="207" y="122.688" width="13" height="12" fill="white"/>
<rect x="207" y="134.688" width="13" height="12" fill="white"/>
<rect x="194" y="146.688" width="13" height="12" fill="white"/>
<rect x="194" y="158.688" width="13" height="12" fill="white"/>
<rect x="194" y="170.688" width="13" height="12" fill="white"/>
<rect x="414" y="134.688" width="13" height="12" fill="white"/>
<rect x="414" y="122.688" width="13" height="12" fill="white"/>
<rect x="427" y="110.688" width="13" height="12" fill="white"/>
<rect x="388" y="26.6875" width="13" height="12" fill="white"/>
<rect x="388" y="38.6875" width="13" height="12" fill="white"/>
<rect x="388" y="50.6875" width="13" height="12" fill="white"/>
<rect x="388" y="62.6875" width="13" height="12" fill="white"/>
<rect x="388" y="74.6875" width="13" height="12" fill="white"/>
<rect x="388" y="86.6875" width="13" height="12" fill="white"/>
<rect x="388" y="98.6875" width="13" height="12" fill="white"/>
<rect x="388" y="110.688" width="13" height="12" fill="white"/>
<rect x="388" y="122.688" width="13" height="12" fill="white"/>
<rect x="388" y="134.688" width="13" height="12" fill="white"/>
<rect x="388" y="146.688" width="13" height="12" fill="white"/>
<rect x="388" y="158.688" width="13" height="12" fill="white"/>
<rect x="388" y="170.688" width="13" height="12" fill="white"/>
<rect x="401" y="26.6875" width="13" height="12" fill="white"/>
<rect x="401" y="38.6875" width="13" height="12" fill="white"/>
<rect x="401" y="50.6875" width="13" height="12" fill="white"/>
<rect x="401" y="146.688" width="13" height="12" fill="white"/>
<rect x="401" y="158.688" width="13" height="12" fill="white"/>
<rect x="401" y="170.688" width="13" height="12" fill="white"/>
<rect x="375" y="134.688" width="13" height="12" fill="white"/>
<rect x="375" y="122.688" width="13" height="12" fill="white"/>
<rect x="375" y="110.688" width="13" height="12" fill="white"/>
<rect x="375" y="98.6875" width="13" height="12" fill="white"/>
<rect x="375" y="86.6875" width="13" height="12" fill="white"/>
<rect x="375" y="74.6875" width="13" height="12" fill="white"/>
<rect x="375" y="62.6875" width="13" height="12" fill="white"/>
<rect x="465" y="113.688" width="13" height="12" fill="white"/>
<rect x="465" y="125.688" width="13" height="12" fill="white"/>
<rect x="465" y="137.688" width="13" height="12" fill="white"/>
<rect x="491" y="137.688" width="13" height="12" fill="white"/>
<rect x="543" y="137.688" width="13" height="12" fill="white"/>
<rect x="491" y="149.688" width="13" height="12" fill="white"/>
<rect x="517" y="149.688" width="13" height="12" fill="white"/>
<rect x="543" y="149.688" width="13" height="12" fill="white"/>
<rect x="504" y="161.688" width="13" height="12" fill="white"/>
<rect x="517" y="161.688" width="13" height="12" fill="white"/>
<rect x="530" y="161.688" width="13" height="12" fill="white"/>
<rect x="478" y="113.688" width="13" height="12" fill="white"/>
<rect x="478" y="125.688" width="13" height="12" fill="white"/>
<rect x="478" y="137.688" width="13" height="12" fill="white"/>
<rect x="556" y="137.688" width="13" height="12" fill="white"/>
<rect x="478" y="149.688" width="13" height="12" fill="white"/>
<rect x="504" y="149.688" width="13" height="12" fill="white"/>
<rect x="530" y="149.688" width="13" height="12" fill="white"/>
<rect x="556" y="149.688" width="13" height="12" fill="white"/>
<rect x="471" y="47.6875" width="13" height="12" fill="white"/>
<rect x="484" y="47.6875" width="13" height="12" fill="white"/>
<rect x="497" y="47.6875" width="13" height="12" fill="white"/>
<rect x="510" y="47.6875" width="13" height="12" fill="white"/>
<rect x="523" y="47.6875" width="13" height="12" fill="white"/>
<rect x="536" y="47.6875" width="13" height="12" fill="white"/>
<rect x="549" y="47.6875" width="13" height="12" fill="white"/>
<rect x="471" y="35.6875" width="13" height="12" fill="white"/>
<rect x="484" y="35.6875" width="13" height="12" fill="white"/>
<rect x="497" y="35.6875" width="13" height="12" fill="white"/>
<rect x="510" y="35.6875" width="13" height="12" fill="white"/>
<rect x="523" y="35.6875" width="13" height="12" fill="white"/>
<rect x="536" y="35.6875" width="13" height="12" fill="white"/>
<rect x="549" y="35.6875" width="13" height="12" fill="white"/>
<rect x="594" y="50.6875" width="13" height="12" fill="white"/>
<rect x="607" y="50.6875" width="13" height="12" fill="white"/>
<rect x="620" y="50.6875" width="13" height="12" fill="white"/>
<rect x="633" y="50.6875" width="13" height="12" fill="white"/>
<rect x="646" y="50.6875" width="13" height="12" fill="white"/>
<rect x="659" y="50.6875" width="13" height="12" fill="white"/>
<rect x="672" y="50.6875" width="13" height="12" fill="white"/>
<rect x="659" y="170.688" width="13" height="12" fill="white"/>
<rect x="646" y="170.688" width="13" height="12" fill="white"/>
<rect x="685" y="50.6875" width="13" height="12" fill="white"/>
<rect x="672" y="170.688" width="13" height="12" fill="white"/>
<rect x="698" y="50.6875" width="13" height="12" fill="white"/>
<rect x="685" y="170.688" width="13" height="12" fill="white"/>
<rect x="711" y="50.6875" width="13" height="12" fill="white"/>
<rect x="698" y="170.688" width="13" height="12" fill="white"/>
<rect x="594" y="38.6875" width="13" height="12" fill="white"/>
<rect x="607" y="38.6875" width="13" height="12" fill="white"/>
<rect x="620" y="38.6875" width="13" height="12" fill="white"/>
<rect x="633" y="38.6875" width="13" height="12" fill="white"/>
<rect x="633" y="26.6875" width="13" height="12" fill="white"/>
<rect x="633" y="62.6875" width="13" height="12" fill="white"/>
<rect x="633" y="74.6875" width="13" height="12" fill="white"/>
<rect x="620" y="86.6875" width="13" height="12" fill="white"/>
<rect x="620" y="98.6875" width="13" height="12" fill="white"/>
<rect x="607" y="110.688" width="13" height="12" fill="white"/>
<rect x="607" y="122.688" width="13" height="12" fill="white"/>
<rect x="646" y="38.6875" width="13" height="12" fill="white"/>
<rect x="646" y="26.6875" width="13" height="12" fill="white"/>
<rect x="646" y="62.6875" width="13" height="12" fill="white"/>
<rect x="646" y="74.6875" width="13" height="12" fill="white"/>
<rect x="633" y="86.6875" width="13" height="12" fill="white"/>
<rect x="633" y="98.6875" width="13" height="12" fill="white"/>
<rect x="620" y="110.688" width="13" height="12" fill="white"/>
<rect x="633" y="110.688" width="13" height="12" fill="white"/>
<rect x="646" y="110.688" width="13" height="12" fill="white"/>
<rect x="646" y="98.6875" width="13" height="12" fill="white"/>
<rect x="659" y="98.6875" width="13" height="12" fill="white"/>
<rect x="672" y="98.6875" width="13" height="12" fill="white"/>
<rect x="672" y="86.6875" width="13" height="12" fill="white"/>
<rect x="685" y="98.6875" width="13" height="12" fill="white"/>
<rect x="685" y="86.6875" width="13" height="12" fill="white"/>
<rect x="698" y="98.6875" width="13" height="12" fill="white"/>
<rect x="711" y="98.6875" width="13" height="12" fill="white"/>
<rect x="659" y="110.688" width="13" height="12" fill="white"/>
<rect x="698" y="110.688" width="13" height="12" fill="white"/>
<rect x="711" y="110.688" width="13" height="12" fill="white"/>
<rect x="711" y="122.688" width="13" height="12" fill="white"/>
<rect x="711" y="134.688" width="13" height="12" fill="white"/>
<rect x="711" y="146.688" width="13" height="12" fill="white"/>
<rect x="711" y="158.688" width="13" height="12" fill="white"/>
<rect x="724" y="110.688" width="13" height="12" fill="white"/>
<rect x="724" y="122.688" width="13" height="12" fill="white"/>
<rect x="724" y="134.688" width="13" height="12" fill="white"/>
<rect x="724" y="146.688" width="13" height="12" fill="white"/>
<rect x="620" y="122.688" width="13" height="12" fill="white"/>
<rect x="659" y="38.6875" width="13" height="12" fill="white"/>
<rect x="672" y="38.6875" width="13" height="12" fill="white"/>
<rect x="659" y="158.688" width="13" height="12" fill="white"/>
<rect x="646" y="158.688" width="13" height="12" fill="white"/>
<rect x="685" y="38.6875" width="13" height="12" fill="white"/>
<rect x="672" y="158.688" width="13" height="12" fill="white"/>
<rect x="698" y="38.6875" width="13" height="12" fill="white"/>
<rect x="685" y="158.688" width="13" height="12" fill="white"/>
<rect x="711" y="38.6875" width="13" height="12" fill="white"/>
<rect x="698" y="158.688" width="13" height="12" fill="white"/>
<rect x="801" y="134.688" width="13" height="12" fill="white"/>
<rect x="801" y="122.688" width="13" height="12" fill="white"/>
<rect x="814" y="110.688" width="13" height="12" fill="white"/>
<rect x="775" y="26.6875" width="13" height="12" fill="white"/>
<rect x="775" y="38.6875" width="13" height="12" fill="white"/>
<rect x="775" y="50.6875" width="13" height="12" fill="white"/>
<rect x="775" y="62.6875" width="13" height="12" fill="white"/>
<rect x="775" y="74.6875" width="13" height="12" fill="white"/>
<rect x="775" y="86.6875" width="13" height="12" fill="white"/>
<rect x="775" y="98.6875" width="13" height="12" fill="white"/>
<rect x="775" y="110.688" width="13" height="12" fill="white"/>
<rect x="775" y="122.688" width="13" height="12" fill="white"/>
<rect x="775" y="134.688" width="13" height="12" fill="white"/>
<rect x="775" y="146.688" width="13" height="12" fill="white"/>
<rect x="775" y="158.688" width="13" height="12" fill="white"/>
<rect x="775" y="170.688" width="13" height="12" fill="white"/>
<rect x="788" y="26.6875" width="13" height="12" fill="white"/>
<rect x="788" y="38.6875" width="13" height="12" fill="white"/>
<rect x="788" y="50.6875" width="13" height="12" fill="white"/>
<rect x="788" y="146.688" width="13" height="12" fill="white"/>
<rect x="788" y="158.688" width="13" height="12" fill="white"/>
<rect x="788" y="170.688" width="13" height="12" fill="white"/>
<rect x="762" y="134.688" width="13" height="12" fill="white"/>
<rect x="762" y="122.688" width="13" height="12" fill="white"/>
<rect x="762" y="110.688" width="13" height="12" fill="white"/>
<rect x="762" y="98.6875" width="13" height="12" fill="white"/>
<rect x="762" y="86.6875" width="13" height="12" fill="white"/>
<rect x="762" y="74.6875" width="13" height="12" fill="white"/>
<rect x="762" y="62.6875" width="13" height="12" fill="white"/>
<rect x="852" y="62.6875" width="13" height="12" fill="white"/>
<rect x="865" y="62.6875" width="13" height="12" fill="white"/>
<rect x="878" y="62.6875" width="13" height="12" fill="white"/>
<rect x="891" y="50.6875" width="13" height="12" fill="white"/>
<rect x="904" y="50.6875" width="13" height="12" fill="white"/>
<rect x="917" y="62.6875" width="13" height="12" fill="white"/>
<rect x="930" y="62.6875" width="13" height="12" fill="white"/>
<rect x="943" y="62.6875" width="13" height="12" fill="white"/>
<rect x="852" y="50.6875" width="13" height="12" fill="white"/>
<rect x="865" y="50.6875" width="13" height="12" fill="white"/>
<rect x="878" y="50.6875" width="13" height="12" fill="white"/>
<rect x="904" y="38.6875" width="13" height="12" fill="white"/>
<rect x="904" y="26.6875" width="13" height="12" fill="white"/>
<rect x="891" y="62.6875" width="13" height="12" fill="white"/>
<rect x="904" y="74.6875" width="13" height="12" fill="white"/>
<rect x="904" y="86.6875" width="13" height="12" fill="white"/>
<rect x="904" y="98.6875" width="13" height="12" fill="white"/>
<rect x="904" y="110.688" width="13" height="12" fill="white"/>
<rect x="904" y="122.688" width="13" height="12" fill="white"/>
<rect x="904" y="134.688" width="13" height="12" fill="white"/>
<rect x="904" y="146.688" width="13" height="12" fill="white"/>
<rect x="904" y="158.688" width="13" height="12" fill="white"/>
<rect x="904" y="170.688" width="13" height="12" fill="white"/>
<rect x="878" y="170.688" width="13" height="12" fill="white"/>
<rect x="852" y="158.688" width="13" height="12" fill="white"/>
<rect x="852" y="146.688" width="13" height="12" fill="white"/>
<rect x="852" y="134.688" width="13" height="12" fill="white"/>
<rect x="878" y="122.688" width="13" height="12" fill="white"/>
<rect x="930" y="122.688" width="13" height="12" fill="white"/>
<rect x="943" y="134.688" width="13" height="12" fill="white"/>
<rect x="956" y="146.688" width="13" height="12" fill="white"/>
<rect x="917" y="38.6875" width="13" height="12" fill="white"/>
<rect x="917" y="26.6875" width="13" height="12" fill="white"/>
<rect x="904" y="62.6875" width="13" height="12" fill="white"/>
<rect x="917" y="74.6875" width="13" height="12" fill="white"/>
<rect x="917" y="86.6875" width="13" height="12" fill="white"/>
<rect x="917" y="98.6875" width="13" height="12" fill="white"/>
<rect x="917" y="110.688" width="13" height="12" fill="white"/>
<rect x="917" y="122.688" width="13" height="12" fill="white"/>
<rect x="917" y="134.688" width="13" height="12" fill="white"/>
<rect x="917" y="146.688" width="13" height="12" fill="white"/>
<rect x="917" y="158.688" width="13" height="12" fill="white"/>
<rect x="891" y="170.688" width="13" height="12" fill="white"/>
<rect x="865" y="170.688" width="13" height="12" fill="white"/>
<rect x="865" y="158.688" width="13" height="12" fill="white"/>
<rect x="865" y="146.688" width="13" height="12" fill="white"/>
<rect x="865" y="134.688" width="13" height="12" fill="white"/>
<rect x="865" y="122.688" width="13" height="12" fill="white"/>
<rect x="891" y="122.688" width="13" height="12" fill="white"/>
<rect x="943" y="122.688" width="13" height="12" fill="white"/>
<rect x="956" y="134.688" width="13" height="12" fill="white"/>
<rect x="969" y="146.688" width="13" height="12" fill="white"/>
<rect x="917" y="50.6875" width="13" height="12" fill="white"/>
<rect x="930" y="50.6875" width="13" height="12" fill="white"/>
<rect x="943" y="50.6875" width="13" height="12" fill="white"/>
</g>
<defs>
<filter id="filter0_d_775_1131" x="0" y="0" width="1007" height="209.375" filterUnits="userSpaceOnUse" color-interpolation-filters="sRGB">
<feFlood flood-opacity="0" result="BackgroundImageFix"/>
<feColorMatrix in="SourceAlpha" type="matrix" values="0 0 0 0 0 0 0 0 0 0 0 0 0 0 0 0 0 0 127 0" result="hardAlpha"/>
<feOffset/>
<feGaussianBlur stdDeviation="12.5"/>
<feComposite in2="hardAlpha" operator="out"/>
<feColorMatrix type="matrix" values="0 0 0 0 1 0 0 0 0 1 0 0 0 0 1 0 0 0 0.4 0"/>
<feBlend mode="normal" in2="BackgroundImageFix" result="effect1_dropShadow_775_1131"/>
<feBlend mode="normal" in="SourceGraphic" in2="effect1_dropShadow_775_1131" result="shape"/>
</filter>
</defs>
</svg>
