<svg width="457" height="220" viewBox="0 0 457 220" fill="none" xmlns="http://www.w3.org/2000/svg">
<g filter="url(#filter0_d_771_1117)">
<path d="M102 185H113V195H102V185Z" fill="white"/>
<path d="M168 165H179V175H168V165Z" fill="white"/>
<path d="M102 175H113V185H102V175Z" fill="white"/>
<path d="M168 155H179V165H168V155Z" fill="white"/>
<path d="M102 165H113V175H102V165Z" fill="white"/>
<path d="M168 145H179V155H168V145Z" fill="white"/>
<path d="M102 155H113V165H102V155Z" fill="white"/>
<path d="M168 135H179V145H168V135Z" fill="white"/>
<path d="M223 135H234V145H223V135Z" fill="white"/>
<path d="M410 135H421V145H410V135Z" fill="white"/>
<path d="M179 135H190V145H179V135Z" fill="white"/>
<path d="M190 135H201V145H190V135Z" fill="white"/>
<path d="M201 135H212V145H201V135Z" fill="white"/>
<path d="M102 145H113V155H102V145Z" fill="white"/>
<path d="M168 125H179V135H168V125Z" fill="white"/>
<path d="M223 125H234V135H223V125Z" fill="white"/>
<path d="M410 125H421V135H410V125Z" fill="white"/>
<path d="M223 175H234V185H223V175Z" fill="white"/>
<path d="M410 175H421V185H410V175Z" fill="white"/>
<path d="M223 185H234V195H223V185Z" fill="white"/>
<path d="M410 185H421V195H410V185Z" fill="white"/>
<path d="M102 135H113V145H102V135Z" fill="white"/>
<path d="M168 115H179V125H168V115Z" fill="white"/>
<path d="M223 115H234V125H223V115Z" fill="white"/>
<path d="M410 115H421V125H410V115Z" fill="white"/>
<path d="M223 165H234V175H223V165Z" fill="white"/>
<path d="M410 165H421V175H410V165Z" fill="white"/>
<path d="M102 125H113V135H102V125Z" fill="white"/>
<path d="M168 105H179V115H168V105Z" fill="white"/>
<path d="M223 105H234V115H223V105Z" fill="white"/>
<path d="M410 105H421V115H410V105Z" fill="white"/>
<path d="M223 155H234V165H223V155Z" fill="white"/>
<path d="M410 155H421V165H410V155Z" fill="white"/>
<path d="M102 115H113V125H102V115Z" fill="white"/>
<path d="M168 95H179V105H168V95Z" fill="white"/>
<path d="M223 95H234V105H223V95Z" fill="white"/>
<path d="M410 95H421V105H410V95Z" fill="white"/>
<path d="M410 65H421V75H410V65Z" fill="white"/>
<path d="M410 55H421V65H410V55Z" fill="white"/>
<path d="M399 45H410V55H399V45Z" fill="white"/>
<path d="M399 35H410V45H399V35Z" fill="white"/>
<path d="M388 25H399V35H388V25Z" fill="white"/>
<path d="M366 25H377V35H366V25Z" fill="white"/>
<path d="M300 95H311V105H300V95Z" fill="white"/>
<path d="M311 95H322V105H311V95Z" fill="white"/>
<path d="M300 105H311V115H300V105Z" fill="white"/>
<path d="M311 105H322V115H311V105Z" fill="white"/>
<path d="M333 135H344V145H333V135Z" fill="white"/>
<path d="M333 125H344V135H333V125Z" fill="white"/>
<path d="M355 125H366V135H355V125Z" fill="white"/>
<path d="M366 125H377V135H366V125Z" fill="white"/>
<path d="M377 125H388V135H377V125Z" fill="white"/>
<path d="M388 125H399V135H388V125Z" fill="white"/>
<path d="M344 125H355V135H344V125Z" fill="white"/>
<path d="M333 145H344V155H333V145Z" fill="white"/>
<path d="M333 155H344V165H333V155Z" fill="white"/>
<path d="M344 155H355V165H344V155Z" fill="white"/>
<path d="M344 165H355V175H344V165Z" fill="white"/>
<path d="M344 175H355V185H344V175Z" fill="white"/>
<path d="M355 175H366V185H355V175Z" fill="white"/>
<path d="M366 175H377V185H366V175Z" fill="white"/>
<path d="M366 185H377V195H366V185Z" fill="white"/>
<path d="M355 185H366V195H355V185Z" fill="white"/>
<path d="M289 115H300V125H289V115Z" fill="white"/>
<path d="M300 115H311V125H300V115Z" fill="white"/>
<path d="M278 125H289V135H278V125Z" fill="white"/>
<path d="M267 125H278V135H267V125Z" fill="white"/>
<path d="M256 125H267V135H256V125Z" fill="white"/>
<path d="M256 135H267V145H256V135Z" fill="white"/>
<path d="M267 135H278V145H267V135Z" fill="white"/>
<path d="M267 145H278V155H267V145Z" fill="white"/>
<path d="M267 155H278V165H267V155Z" fill="white"/>
<path d="M278 155H289V165H278V155Z" fill="white"/>
<path d="M278 165H289V175H278V165Z" fill="white"/>
<path d="M289 165H300V175H289V165Z" fill="white"/>
<path d="M289 175H300V185H289V175Z" fill="white"/>
<path d="M300 175H311V185H300V175Z" fill="white"/>
<path d="M300 185H311V195H300V185Z" fill="white"/>
<path d="M311 185H322V195H311V185Z" fill="white"/>
<path d="M278 135H289V145H278V135Z" fill="white"/>
<path d="M289 125H300V135H289V125Z" fill="white"/>
<path d="M289 135H300V145H289V135Z" fill="white"/>
<path d="M300 135H311V145H300V135Z" fill="white"/>
<path d="M311 135H322V145H311V135Z" fill="white"/>
<path d="M322 135H333V145H322V135Z" fill="white"/>
<path d="M223 145H234V155H223V145Z" fill="white"/>
<path d="M410 145H421V155H410V145Z" fill="white"/>
<path d="M102 105H113V115H102V105Z" fill="white"/>
<path d="M102 95H113V105H102V95Z" fill="white"/>
<path d="M25 75H36V85H25V75Z" fill="white"/>
<path d="M36 75H47V85H36V75Z" fill="white"/>
<path d="M47 75H58V85H47V75Z" fill="white"/>
<path d="M58 75H69V85H58V75Z" fill="white"/>
<path d="M69 75H80V85H69V75Z" fill="white"/>
<path d="M80 75H91V85H80V75Z" fill="white"/>
<path d="M91 75H102V85H91V75Z" fill="white"/>
<path d="M102 75H113V85H102V75Z" fill="white"/>
<path d="M113 75H124V85H113V75Z" fill="white"/>
<path d="M124 75H135V85H124V75Z" fill="white"/>
<path d="M135 75H146V85H135V75Z" fill="white"/>
<path d="M146 75H157V85H146V75Z" fill="white"/>
<path d="M157 75H168V85H157V75Z" fill="white"/>
<path d="M168 75H179V85H168V75Z" fill="white"/>
<path d="M179 75H190V85H179V75Z" fill="white"/>
<path d="M190 75H201V85H190V75Z" fill="white"/>
<path d="M201 75H212V85H201V75Z" fill="white"/>
<path d="M212 75H223V85H212V75Z" fill="white"/>
<path d="M223 75H234V85H223V75Z" fill="white"/>
<path d="M234 75H245V85H234V75Z" fill="white"/>
<path d="M245 75H256V85H245V75Z" fill="white"/>
<path d="M256 75H267V85H256V75Z" fill="white"/>
<path d="M267 75H278V85H267V75Z" fill="white"/>
<path d="M278 75H289V85H278V75Z" fill="white"/>
<path d="M289 75H300V85H289V75Z" fill="white"/>
<path d="M300 75H311V85H300V75Z" fill="white"/>
<path d="M311 75H322V85H311V75Z" fill="white"/>
<path d="M322 75H333V85H322V75Z" fill="white"/>
<path d="M333 75H344V85H333V75Z" fill="white"/>
<path d="M344 75H355V85H344V75Z" fill="white"/>
<path d="M355 75H366V85H355V75Z" fill="white"/>
<path d="M366 75H377V85H366V75Z" fill="white"/>
<path d="M377 75H388V85H377V75Z" fill="white"/>
<path d="M388 75H399V85H388V75Z" fill="white"/>
<path d="M399 75H410V85H399V75Z" fill="white"/>
<path d="M410 75H421V85H410V75Z" fill="white"/>
<path d="M421 75H432V85H421V75Z" fill="white"/>
<path d="M113 95H124V105H113V95Z" fill="white"/>
<path d="M113 105H124V115H113V105Z" fill="white"/>
<path d="M157 95H168V105H157V95Z" fill="white"/>
<path d="M212 95H223V105H212V95Z" fill="white"/>
<path d="M399 95H410V105H399V95Z" fill="white"/>
<path d="M399 65H410V75H399V65Z" fill="white"/>
<path d="M399 55H410V65H399V55Z" fill="white"/>
<path d="M388 45H399V55H388V45Z" fill="white"/>
<path d="M388 35H399V45H388V35Z" fill="white"/>
<path d="M377 25H388V35H377V25Z" fill="white"/>
<path d="M355 25H366V35H355V25Z" fill="white"/>
<path d="M355 35H366V45H355V35Z" fill="white"/>
<path d="M212 145H223V155H212V145Z" fill="white"/>
<path d="M399 145H410V155H399V145Z" fill="white"/>
<path d="M113 115H124V125H113V115Z" fill="white"/>
<path d="M157 105H168V115H157V105Z" fill="white"/>
<path d="M212 105H223V115H212V105Z" fill="white"/>
<path d="M399 105H410V115H399V105Z" fill="white"/>
<path d="M212 155H223V165H212V155Z" fill="white"/>
<path d="M399 155H410V165H399V155Z" fill="white"/>
<path d="M113 125H124V135H113V125Z" fill="white"/>
<path d="M157 115H168V125H157V115Z" fill="white"/>
<path d="M212 115H223V125H212V115Z" fill="white"/>
<path d="M399 115H410V125H399V115Z" fill="white"/>
<path d="M212 165H223V175H212V165Z" fill="white"/>
<path d="M399 165H410V175H399V165Z" fill="white"/>
<path d="M113 135H124V145H113V135Z" fill="white"/>
<path d="M157 125H168V135H157V125Z" fill="white"/>
<path d="M212 125H223V135H212V125Z" fill="white"/>
<path d="M399 125H410V135H399V125Z" fill="white"/>
<path d="M212 175H223V185H212V175Z" fill="white"/>
<path d="M399 175H410V185H399V175Z" fill="white"/>
<path d="M212 185H223V195H212V185Z" fill="white"/>
<path d="M399 185H410V195H399V185Z" fill="white"/>
<path d="M113 145H124V155H113V145Z" fill="white"/>
<path d="M157 135H168V145H157V135Z" fill="white"/>
<path d="M212 135H223V145H212V135Z" fill="white"/>
<path d="M399 135H410V145H399V135Z" fill="white"/>
<path d="M344 135H355V145H344V135Z" fill="white"/>
<path d="M278 145H289V155H278V145Z" fill="white"/>
<path d="M289 155H300V165H289V155Z" fill="white"/>
<path d="M300 165H311V175H300V165Z" fill="white"/>
<path d="M311 175H322V185H311V175Z" fill="white"/>
<path d="M344 145H355V155H344V145Z" fill="white"/>
<path d="M355 155H366V165H355V155Z" fill="white"/>
<path d="M355 165H366V175H355V165Z" fill="white"/>
<path d="M113 155H124V165H113V155Z" fill="white"/>
<path d="M157 145H168V155H157V145Z" fill="white"/>
<path d="M146 145H157V155H146V145Z" fill="white"/>
<path d="M146 135H157V145H146V135Z" fill="white"/>
<path d="M113 165H124V175H113V165Z" fill="white"/>
<path d="M157 155H168V165H157V155Z" fill="white"/>
<path d="M113 175H124V185H113V175Z" fill="white"/>
<path d="M113 185H124V195H113V185Z" fill="white"/>
<path d="M102 85H113V95H102V85Z" fill="white"/>
<path d="M113 85H124V95H113V85Z" fill="white"/>
<path d="M124 85H135V95H124V85Z" fill="white"/>
<path d="M135 85H146V95H135V85Z" fill="white"/>
<path d="M146 85H157V95H146V85Z" fill="white"/>
<path d="M157 85H168V95H157V85Z" fill="white"/>
<path d="M168 85H179V95H168V85Z" fill="white"/>
<path d="M179 85H190V95H179V85Z" fill="white"/>
<path d="M190 85H201V95H190V85Z" fill="white"/>
<path d="M201 85H212V95H201V85Z" fill="white"/>
<path d="M212 85H223V95H212V85Z" fill="white"/>
<path d="M223 85H234V95H223V85Z" fill="white"/>
<path d="M234 85H245V95H234V85Z" fill="white"/>
<path d="M245 85H256V95H245V85Z" fill="white"/>
<path d="M256 85H267V95H256V85Z" fill="white"/>
<path d="M267 85H278V95H267V85Z" fill="white"/>
<path d="M278 85H289V95H278V85Z" fill="white"/>
<path d="M289 85H300V95H289V85Z" fill="white"/>
<path d="M300 85H311V95H300V85Z" fill="white"/>
<path d="M311 85H322V95H311V85Z" fill="white"/>
<path d="M322 85H333V95H322V85Z" fill="white"/>
<path d="M333 85H344V95H333V85Z" fill="white"/>
<path d="M344 85H355V95H344V85Z" fill="white"/>
<path d="M355 85H366V95H355V85Z" fill="white"/>
<path d="M366 85H377V95H366V85Z" fill="white"/>
<path d="M377 85H388V95H377V85Z" fill="white"/>
<path d="M388 85H399V95H388V85Z" fill="white"/>
<path d="M399 85H410V95H399V85Z" fill="white"/>
<path d="M410 85H421V95H410V85Z" fill="white"/>
<path d="M421 85H432V95H421V85Z" fill="white"/>
<path d="M91 85H102V95H91V85Z" fill="white"/>
<path d="M80 85H91V95H80V85Z" fill="white"/>
<path d="M69 85H80V95H69V85Z" fill="white"/>
<path d="M58 85H69V95H58V85Z" fill="white"/>
<path d="M47 85H58V95H47V85Z" fill="white"/>
<path d="M36 85H47V95H36V85Z" fill="white"/>
<path d="M91 123H102V133H91V123Z" fill="white"/>
<path d="M80 123H91V133H80V123Z" fill="white"/>
<path d="M69 123H80V133H69V123Z" fill="white"/>
<path d="M58 123H69V133H58V123Z" fill="white"/>
<path d="M47 123H58V133H47V123Z" fill="white"/>
<path d="M36 123H47V133H36V123Z" fill="white"/>
<path d="M36 133H47V143H36V133Z" fill="white"/>
<path d="M47 133H58V143H47V133Z" fill="white"/>
<path d="M58 133H69V143H58V133Z" fill="white"/>
<path d="M58 143H69V153H58V143Z" fill="white"/>
<path d="M47 143H58V153H47V143Z" fill="white"/>
<path d="M25 85H36V95H25V85Z" fill="white"/>
</g>
<defs>
<filter id="filter0_d_771_1117" x="0" y="0" width="457" height="220" filterUnits="userSpaceOnUse" color-interpolation-filters="sRGB">
<feFlood flood-opacity="0" result="BackgroundImageFix"/>
<feColorMatrix in="SourceAlpha" type="matrix" values="0 0 0 0 0 0 0 0 0 0 0 0 0 0 0 0 0 0 127 0" result="hardAlpha"/>
<feOffset/>
<feGaussianBlur stdDeviation="12.5"/>
<feComposite in2="hardAlpha" operator="out"/>
<feColorMatrix type="matrix" values="0 0 0 0 1 0 0 0 0 1 0 0 0 0 1 0 0 0 0.4 0"/>
<feBlend mode="normal" in2="BackgroundImageFix" result="effect1_dropShadow_771_1117"/>
<feBlend mode="normal" in="SourceGraphic" in2="effect1_dropShadow_771_1117" result="shape"/>
</filter>
</defs>
</svg>
