<svg width="310" height="218" viewBox="0 0 310 218" fill="none" xmlns="http://www.w3.org/2000/svg">
<g filter="url(#filter0_d_774_1123)">
<path d="M49.0066 73.5357H60.953V85.4821H49.0066V73.5357ZM37.0602 73.5357H49.0066V85.4821H37.0602V73.5357ZM37.0602 85.4821H49.0066V97.4286H37.0602V85.4821ZM49.0066 85.4821H60.953V97.4286H49.0066V85.4821ZM60.953 85.4821H72.8994V97.4286H60.953V85.4821ZM60.953 73.5357H72.8994V85.4821H60.953V73.5357ZM72.8994 73.5357H84.8459V85.4821H72.8994V73.5357ZM84.8459 73.5357H96.7923V85.4821H84.8459V73.5357ZM84.8459 85.4821H96.7923V97.4286H84.8459V85.4821ZM72.8994 85.4821H84.8459V97.4286H72.8994V85.4821ZM72.8994 97.4286H84.8459V109.375H72.8994V97.4286ZM84.8459 97.4286H96.7923V109.375H84.8459V97.4286ZM96.7923 85.4821H108.739V97.4286H96.7923V85.4821ZM96.7923 97.4286H108.739V109.375H96.7923V97.4286ZM96.7923 109.375H108.739V121.321H96.7923V109.375ZM96.7923 121.321H108.739V133.268H96.7923V121.321ZM96.7923 133.268H108.739V145.214H96.7923V133.268ZM96.7923 145.214H108.739V157.161H96.7923V145.214ZM96.7923 157.161H108.739V169.107H96.7923V157.161ZM96.7923 169.107H108.739V181.054H96.7923V169.107ZM84.8459 169.107H96.7923V181.054H84.8459V169.107ZM84.8459 157.161H96.7923V169.107H84.8459V157.161ZM84.8459 145.214H96.7923V157.161H84.8459V145.214ZM84.8459 133.268H96.7923V145.214H84.8459V133.268ZM84.8459 121.321H96.7923V133.268H84.8459V121.321ZM84.8459 109.375H96.7923V121.321H84.8459V109.375ZM72.8994 157.161H84.8459V169.107H72.8994V157.161ZM72.8994 169.107H84.8459V181.054H72.8994V169.107ZM84.8459 181.054H96.7923V193H84.8459V181.054ZM72.8994 181.054H84.8459V193H72.8994V181.054ZM60.953 181.054H72.8994V193H60.953V181.054ZM60.953 169.107H72.8994V181.054H60.953V169.107ZM49.0066 181.054H60.953V193H49.0066V181.054ZM37.0602 181.054H49.0066V193H37.0602V181.054ZM37.0602 169.107H49.0066V181.054H37.0602V169.107ZM49.0066 169.107H60.953V181.054H49.0066V169.107ZM49.0066 157.161H60.953V169.107H49.0066V157.161ZM37.0602 157.161H49.0066V169.107H37.0602V157.161ZM25.1137 169.107H37.0602V181.054H25.1137V169.107ZM25.1137 157.161H37.0602V169.107H25.1137V157.161ZM25.1137 145.214H37.0602V157.161H25.1137V145.214ZM25.1137 133.268H37.0602V145.214H25.1137V133.268ZM25.1137 121.321H37.0602V133.268H25.1137V121.321ZM25.1137 109.375H37.0602V121.321H25.1137V109.375ZM25.1137 97.4286H37.0602V109.375H25.1137V97.4286ZM37.0602 97.4286H49.0066V109.375H37.0602V97.4286ZM25.1137 85.4821H37.0602V97.4286H25.1137V85.4821ZM49.0066 97.4286H60.953V109.375H49.0066V97.4286ZM37.0602 109.375H49.0066V121.321H37.0602V109.375ZM37.0602 121.321H49.0066V133.268H37.0602V121.321ZM37.0602 133.268H49.0066V145.214H37.0602V133.268ZM37.0602 145.214H49.0066V157.161H37.0602V145.214ZM125.176 73.5357H137.123V85.4821H125.176V73.5357ZM137.123 73.5357H149.069V85.4821H137.123V73.5357ZM137.123 85.4821H149.069V97.4286H137.123V85.4821ZM137.123 97.4286H149.069V109.375H137.123V97.4286ZM137.123 109.375H149.069V121.321H137.123V109.375ZM125.176 109.375H137.123V121.321H125.176V109.375ZM125.176 97.4286H137.123V109.375H125.176V97.4286ZM125.176 85.4821H137.123V97.4286H125.176V85.4821ZM125.176 121.321H137.123V133.268H125.176V121.321ZM125.176 133.268H137.123V145.214H125.176V133.268ZM125.176 145.214H137.123V157.161H125.176V145.214ZM137.123 133.268H149.069V145.214H137.123V133.268ZM137.123 121.321H149.069V133.268H137.123V121.321ZM137.123 145.214H149.069V157.161H137.123V145.214ZM137.123 157.161H149.069V169.107H137.123V157.161ZM125.176 169.107H137.123V181.054H125.176V169.107ZM125.176 157.161H137.123V169.107H125.176V157.161ZM125.176 181.054H137.123V193H125.176V181.054ZM137.123 181.054H149.069V193H137.123V181.054ZM137.123 169.107H149.069V181.054H137.123V169.107ZM149.069 181.054H161.016V193H149.069V181.054ZM161.016 181.054H172.962V193H161.016V181.054ZM172.962 181.054H184.908V193H172.962V181.054ZM172.962 169.107H184.908V181.054H172.962V169.107ZM161.016 169.107H172.962V181.054H161.016V169.107ZM149.069 169.107H161.016V181.054H149.069V169.107ZM225.177 85.4821H237.123V97.4286H225.177V85.4821ZM237.123 85.4821H249.069V97.4286H237.123V85.4821ZM237.123 73.5357H249.069V85.4821H237.123V73.5357ZM249.069 85.4821H261.016V97.4286H249.069V85.4821ZM249.069 97.4286H261.016V109.375H249.069V97.4286ZM261.016 97.4286H272.962V109.375H261.016V97.4286ZM237.123 97.4286H249.069V109.375H237.123V97.4286ZM225.177 97.4286H237.123V109.375H225.177V97.4286ZM213.23 97.4286H225.177V109.375H213.23V97.4286ZM213.23 109.375H225.177V121.321H213.23V109.375ZM201.284 109.375H213.23V121.321H201.284V109.375ZM225.177 109.375H237.123V121.321H225.177V109.375ZM213.23 121.321H225.177V133.268H213.23V121.321ZM213.23 133.268H225.177V145.214H213.23V133.268ZM213.23 145.214H225.177V157.161H213.23V145.214ZM225.177 145.214H237.123V157.161H225.177V145.214ZM237.123 145.214H249.069V157.161H237.123V145.214ZM249.069 145.214H261.016V157.161H249.069V145.214ZM261.016 145.214H272.962V157.161H261.016V145.214ZM272.962 145.214H284.909V157.161H272.962V145.214ZM272.962 133.268H284.909V145.214H272.962V133.268ZM272.962 121.321H284.909V133.268H272.962V121.321ZM272.962 109.375H284.909V121.321H272.962V109.375ZM261.016 109.375H272.962V121.321H261.016V109.375ZM249.069 109.375H261.016V121.321H249.069V109.375ZM261.016 121.321H272.962V133.268H261.016V121.321ZM261.016 133.268H272.962V145.214H261.016V133.268ZM261.016 157.161H272.962V169.107H261.016V157.161ZM272.962 157.161H284.909V169.107H272.962V157.161ZM272.962 169.107H284.909V181.054H272.962V169.107ZM272.962 181.054H284.909V193H272.962V181.054ZM261.016 181.054H272.962V193H261.016V181.054ZM261.016 169.107H272.962V181.054H261.016V169.107ZM249.069 157.161H261.016V169.107H249.069V157.161ZM237.123 157.161H249.069V169.107H237.123V157.161ZM225.177 157.161H237.123V169.107H225.177V157.161ZM213.23 157.161H225.177V169.107H213.23V157.161ZM213.23 169.107H225.177V181.054H213.23V169.107ZM213.23 181.054H225.177V193H213.23V181.054ZM201.284 181.054H213.23V193H201.284V181.054ZM201.284 169.107H213.23V181.054H201.284V169.107ZM201.284 157.161H213.23V169.107H201.284V157.161ZM201.284 145.214H213.23V157.161H201.284V145.214ZM201.284 133.268H213.23V145.214H201.284V133.268ZM201.284 121.321H213.23V133.268H201.284V121.321ZM249.069 37.6964V49.6429H237.123V37.6964H249.069ZM249.069 49.6429V61.5893H237.123V49.6429H249.069ZM261.016 37.6964V49.6429H249.069V37.6964H261.016ZM261.016 25.75V37.6964H249.069V25.75H261.016Z" fill="white"/>
</g>
<defs>
<filter id="filter0_d_774_1123" x="0.113281" y="0.75" width="309.796" height="217.25" filterUnits="userSpaceOnUse" color-interpolation-filters="sRGB">
<feFlood flood-opacity="0" result="BackgroundImageFix"/>
<feColorMatrix in="SourceAlpha" type="matrix" values="0 0 0 0 0 0 0 0 0 0 0 0 0 0 0 0 0 0 127 0" result="hardAlpha"/>
<feOffset/>
<feGaussianBlur stdDeviation="12.5"/>
<feComposite in2="hardAlpha" operator="out"/>
<feColorMatrix type="matrix" values="0 0 0 0 1 0 0 0 0 1 0 0 0 0 1 0 0 0 0.4 0"/>
<feBlend mode="normal" in2="BackgroundImageFix" result="effect1_dropShadow_774_1123"/>
<feBlend mode="normal" in="SourceGraphic" in2="effect1_dropShadow_774_1123" result="shape"/>
</filter>
</defs>
</svg>
