<svg width="713" height="170" viewBox="0 0 713 170" fill="none" xmlns="http://www.w3.org/2000/svg">
<g filter="url(#filter0_d_781_1689)">
<rect x="25" y="133" width="13" height="12" fill="white"/>
<rect x="25" y="121" width="13" height="12" fill="white"/>
<rect x="25" y="109" width="13" height="12" fill="white"/>
<rect x="25" y="97" width="13" height="12" fill="white"/>
<rect x="25" y="85" width="13" height="12" fill="white"/>
<rect x="25" y="73" width="13" height="12" fill="white"/>
<rect x="25" y="61" width="13" height="12" fill="white"/>
<rect x="25" y="49" width="13" height="12" fill="white"/>
<rect x="25" y="37" width="13" height="12" fill="white"/>
<rect x="25" y="25" width="13" height="12" fill="white"/>
<rect x="38" y="133" width="13" height="12" fill="white"/>
<rect x="38" y="121" width="13" height="12" fill="white"/>
<rect x="38" y="109" width="13" height="12" fill="white"/>
<rect x="38" y="97" width="13" height="12" fill="white"/>
<rect x="38" y="85" width="13" height="12" fill="white"/>
<rect x="38" y="73" width="13" height="12" fill="white"/>
<rect x="38" y="61" width="13" height="12" fill="white"/>
<rect x="38" y="49" width="13" height="12" fill="white"/>
<rect x="38" y="37" width="13" height="12" fill="white"/>
<rect x="51" y="37" width="13" height="12" fill="white"/>
<rect x="64" y="37" width="13" height="12" fill="white"/>
<rect x="77" y="37" width="13" height="12" fill="white"/>
<rect x="90" y="37" width="13" height="12" fill="white"/>
<rect x="103" y="37" width="13" height="12" fill="white"/>
<rect x="103" y="49" width="13" height="12" fill="white"/>
<rect x="103" y="61" width="13" height="12" fill="white"/>
<rect x="103" y="73" width="13" height="12" fill="white"/>
<rect x="103" y="85" width="13" height="12" fill="white"/>
<rect x="103" y="97" width="13" height="12" fill="white"/>
<rect x="103" y="109" width="13" height="12" fill="white"/>
<rect x="103" y="121" width="13" height="12" fill="white"/>
<rect x="103" y="133" width="13" height="12" fill="white"/>
<rect x="155" y="133" width="13" height="12" fill="white"/>
<rect x="155" y="121" width="13" height="12" fill="white"/>
<rect x="155" y="109" width="13" height="12" fill="white"/>
<rect x="155" y="97" width="13" height="12" fill="white"/>
<rect x="155" y="85" width="13" height="12" fill="white"/>
<rect x="155" y="73" width="13" height="12" fill="white"/>
<rect x="155" y="61" width="13" height="12" fill="white"/>
<rect x="155" y="49" width="13" height="12" fill="white"/>
<rect x="155" y="37" width="13" height="12" fill="white"/>
<rect x="168" y="37" width="13" height="12" fill="white"/>
<rect x="181" y="37" width="13" height="12" fill="white"/>
<rect x="194" y="37" width="13" height="12" fill="white"/>
<rect x="207" y="37" width="13" height="12" fill="white"/>
<rect x="220" y="37" width="13" height="12" fill="white"/>
<rect x="220" y="61" width="13" height="12" fill="white"/>
<rect x="220" y="85" width="13" height="12" fill="white"/>
<rect x="207" y="85" width="13" height="12" fill="white"/>
<rect x="194" y="85" width="13" height="12" fill="white"/>
<rect x="181" y="85" width="13" height="12" fill="white"/>
<rect x="168" y="85" width="13" height="12" fill="white"/>
<rect x="233" y="61" width="13" height="12" fill="white"/>
<rect x="155" y="25" width="13" height="12" fill="white"/>
<rect x="168" y="25" width="13" height="12" fill="white"/>
<rect x="181" y="25" width="13" height="12" fill="white"/>
<rect x="194" y="25" width="13" height="12" fill="white"/>
<rect x="207" y="25" width="13" height="12" fill="white"/>
<rect x="220" y="25" width="13" height="12" fill="white"/>
<rect x="220" y="49" width="13" height="12" fill="white"/>
<rect x="272" y="49" width="13" height="12" fill="white"/>
<rect x="272" y="61" width="13" height="12" fill="white"/>
<rect x="272" y="73" width="13" height="12" fill="white"/>
<rect x="272" y="85" width="13" height="12" fill="white"/>
<rect x="272" y="97" width="13" height="12" fill="white"/>
<rect x="272" y="109" width="13" height="12" fill="white"/>
<rect x="272" y="121" width="13" height="12" fill="white"/>
<rect x="285" y="109" width="13" height="12" fill="white"/>
<rect x="285" y="97" width="13" height="12" fill="white"/>
<rect x="298" y="85" width="13" height="12" fill="white"/>
<rect x="298" y="73" width="13" height="12" fill="white"/>
<rect x="311" y="61" width="13" height="12" fill="white"/>
<rect x="311" y="49" width="13" height="12" fill="white"/>
<rect x="324" y="73" width="13" height="12" fill="white"/>
<rect x="272" y="133" width="13" height="12" fill="white"/>
<rect x="272" y="37" width="13" height="12" fill="white"/>
<rect x="272" y="25" width="13" height="12" fill="white"/>
<rect x="337" y="25" width="13" height="12" fill="white"/>
<rect x="363" y="25" width="13" height="12" fill="white"/>
<rect x="363" y="37" width="13" height="12" fill="white"/>
<rect x="493" y="49" width="13" height="12" fill="white"/>
<rect x="493" y="61" width="13" height="12" fill="white"/>
<rect x="493" y="73" width="13" height="12" fill="white"/>
<rect x="493" y="85" width="13" height="12" fill="white"/>
<rect x="493" y="97" width="13" height="12" fill="white"/>
<rect x="493" y="109" width="13" height="12" fill="white"/>
<rect x="493" y="121" width="13" height="12" fill="white"/>
<rect x="506" y="121" width="13" height="12" fill="white"/>
<rect x="506" y="25" width="13" height="12" fill="white"/>
<rect x="506" y="73" width="13" height="12" fill="white"/>
<rect x="519" y="121" width="13" height="12" fill="white"/>
<rect x="519" y="25" width="13" height="12" fill="white"/>
<rect x="519" y="73" width="13" height="12" fill="white"/>
<rect x="532" y="121" width="13" height="12" fill="white"/>
<rect x="532" y="25" width="13" height="12" fill="white"/>
<rect x="532" y="73" width="13" height="12" fill="white"/>
<rect x="545" y="121" width="13" height="12" fill="white"/>
<rect x="545" y="25" width="13" height="12" fill="white"/>
<rect x="545" y="73" width="13" height="12" fill="white"/>
<rect x="558" y="121" width="13" height="12" fill="white"/>
<rect x="558" y="25" width="13" height="12" fill="white"/>
<rect x="493" y="133" width="13" height="12" fill="white"/>
<rect x="506" y="133" width="13" height="12" fill="white"/>
<rect x="506" y="37" width="13" height="12" fill="white"/>
<rect x="506" y="85" width="13" height="12" fill="white"/>
<rect x="519" y="133" width="13" height="12" fill="white"/>
<rect x="519" y="37" width="13" height="12" fill="white"/>
<rect x="519" y="85" width="13" height="12" fill="white"/>
<rect x="532" y="133" width="13" height="12" fill="white"/>
<rect x="532" y="37" width="13" height="12" fill="white"/>
<rect x="532" y="85" width="13" height="12" fill="white"/>
<rect x="545" y="133" width="13" height="12" fill="white"/>
<rect x="545" y="37" width="13" height="12" fill="white"/>
<rect x="545" y="85" width="13" height="12" fill="white"/>
<rect x="558" y="133" width="13" height="12" fill="white"/>
<rect x="558" y="37" width="13" height="12" fill="white"/>
<rect x="493" y="37" width="13" height="12" fill="white"/>
<rect x="493" y="25" width="13" height="12" fill="white"/>
<rect x="584" y="25" width="13" height="12" fill="white"/>
<rect x="584" y="37" width="13" height="12" fill="white"/>
<rect x="597" y="37" width="13" height="12" fill="white"/>
<rect x="610" y="37" width="13" height="12" fill="white"/>
<rect x="623" y="37" width="13" height="12" fill="white"/>
<rect x="623" y="49" width="13" height="12" fill="white"/>
<rect x="623" y="61" width="13" height="12" fill="white"/>
<rect x="623" y="73" width="13" height="12" fill="white"/>
<rect x="623" y="85" width="13" height="12" fill="white"/>
<rect x="623" y="97" width="13" height="12" fill="white"/>
<rect x="623" y="109" width="13" height="12" fill="white"/>
<rect x="623" y="121" width="13" height="12" fill="white"/>
<rect x="623" y="133" width="13" height="12" fill="white"/>
<rect x="636" y="37" width="13" height="12" fill="white"/>
<rect x="636" y="49" width="13" height="12" fill="white"/>
<rect x="636" y="61" width="13" height="12" fill="white"/>
<rect x="636" y="73" width="13" height="12" fill="white"/>
<rect x="636" y="85" width="13" height="12" fill="white"/>
<rect x="636" y="97" width="13" height="12" fill="white"/>
<rect x="636" y="109" width="13" height="12" fill="white"/>
<rect x="636" y="121" width="13" height="12" fill="white"/>
<rect x="636" y="133" width="13" height="12" fill="white"/>
<rect x="649" y="37" width="13" height="12" fill="white"/>
<rect x="662" y="37" width="13" height="12" fill="white"/>
<rect x="675" y="37" width="13" height="12" fill="white"/>
<rect x="363" y="49" width="13" height="12" fill="white"/>
<rect x="363" y="61" width="13" height="12" fill="white"/>
<rect x="363" y="73" width="13" height="12" fill="white"/>
<rect x="363" y="85" width="13" height="12" fill="white"/>
<rect x="363" y="97" width="13" height="12" fill="white"/>
<rect x="363" y="109" width="13" height="12" fill="white"/>
<rect x="363" y="121" width="13" height="12" fill="white"/>
<rect x="363" y="133" width="13" height="12" fill="white"/>
<rect x="337" y="37" width="13" height="12" fill="white"/>
<rect x="337" y="49" width="13" height="12" fill="white"/>
<rect x="337" y="61" width="13" height="12" fill="white"/>
<rect x="337" y="73" width="13" height="12" fill="white"/>
<rect x="337" y="85" width="13" height="12" fill="white"/>
<rect x="337" y="97" width="13" height="12" fill="white"/>
<rect x="337" y="109" width="13" height="12" fill="white"/>
<rect x="337" y="121" width="13" height="12" fill="white"/>
<rect x="337" y="133" width="13" height="12" fill="white"/>
<rect x="220" y="73" width="13" height="12" fill="white"/>
<rect x="207" y="73" width="13" height="12" fill="white"/>
<rect x="194" y="73" width="13" height="12" fill="white"/>
<rect x="181" y="73" width="13" height="12" fill="white"/>
<rect x="168" y="73" width="13" height="12" fill="white"/>
<rect x="233" y="49" width="13" height="12" fill="white"/>
<rect x="259" y="49" width="13" height="12" fill="white"/>
<rect x="259" y="61" width="13" height="12" fill="white"/>
<rect x="259" y="73" width="13" height="12" fill="white"/>
<rect x="259" y="85" width="13" height="12" fill="white"/>
<rect x="259" y="97" width="13" height="12" fill="white"/>
<rect x="259" y="109" width="13" height="12" fill="white"/>
<rect x="259" y="121" width="13" height="12" fill="white"/>
<rect x="259" y="133" width="13" height="12" fill="white"/>
<rect x="259" y="37" width="13" height="12" fill="white"/>
<rect x="259" y="25" width="13" height="12" fill="white"/>
<rect x="324" y="25" width="13" height="12" fill="white"/>
<rect x="376" y="25" width="13" height="12" fill="white"/>
<rect x="376" y="37" width="13" height="12" fill="white"/>
<rect x="480" y="49" width="13" height="12" fill="white"/>
<rect x="480" y="61" width="13" height="12" fill="white"/>
<rect x="480" y="73" width="13" height="12" fill="white"/>
<rect x="480" y="85" width="13" height="12" fill="white"/>
<rect x="480" y="97" width="13" height="12" fill="white"/>
<rect x="480" y="109" width="13" height="12" fill="white"/>
<rect x="480" y="121" width="13" height="12" fill="white"/>
<rect x="480" y="133" width="13" height="12" fill="white"/>
<rect x="480" y="37" width="13" height="12" fill="white"/>
<rect x="480" y="25" width="13" height="12" fill="white"/>
<rect x="597" y="25" width="13" height="12" fill="white"/>
<rect x="610" y="25" width="13" height="12" fill="white"/>
<rect x="623" y="25" width="13" height="12" fill="white"/>
<rect x="636" y="25" width="13" height="12" fill="white"/>
<rect x="649" y="25" width="13" height="12" fill="white"/>
<rect x="662" y="25" width="13" height="12" fill="white"/>
<rect x="675" y="25" width="13" height="12" fill="white"/>
<rect x="376" y="49" width="13" height="12" fill="white"/>
<rect x="376" y="61" width="13" height="12" fill="white"/>
<rect x="376" y="73" width="13" height="12" fill="white"/>
<rect x="376" y="85" width="13" height="12" fill="white"/>
<rect x="376" y="97" width="13" height="12" fill="white"/>
<rect x="376" y="109" width="13" height="12" fill="white"/>
<rect x="376" y="121" width="13" height="12" fill="white"/>
<rect x="389" y="121" width="13" height="12" fill="white"/>
<rect x="402" y="121" width="13" height="12" fill="white"/>
<rect x="415" y="121" width="13" height="12" fill="white"/>
<rect x="428" y="121" width="13" height="12" fill="white"/>
<rect x="428" y="133" width="13" height="12" fill="white"/>
<rect x="389" y="25" width="13" height="12" fill="white"/>
<rect x="402" y="25" width="13" height="12" fill="white"/>
<rect x="415" y="25" width="13" height="12" fill="white"/>
<rect x="428" y="25" width="13" height="12" fill="white"/>
<rect x="389" y="73" width="13" height="12" fill="white"/>
<rect x="402" y="73" width="13" height="12" fill="white"/>
<rect x="415" y="73" width="13" height="12" fill="white"/>
<rect x="428" y="73" width="13" height="12" fill="white"/>
<rect x="441" y="49" width="13" height="12" fill="white"/>
<rect x="441" y="37" width="13" height="12" fill="white"/>
<rect x="454" y="49" width="13" height="12" fill="white"/>
<rect x="454" y="97" width="13" height="12" fill="white"/>
<rect x="441" y="97" width="13" height="12" fill="white"/>
<rect x="376" y="133" width="13" height="12" fill="white"/>
<rect x="389" y="133" width="13" height="12" fill="white"/>
<rect x="402" y="133" width="13" height="12" fill="white"/>
<rect x="415" y="133" width="13" height="12" fill="white"/>
<rect x="389" y="37" width="13" height="12" fill="white"/>
<rect x="402" y="37" width="13" height="12" fill="white"/>
<rect x="415" y="37" width="13" height="12" fill="white"/>
<rect x="428" y="37" width="13" height="12" fill="white"/>
<rect x="389" y="85" width="13" height="12" fill="white"/>
<rect x="402" y="85" width="13" height="12" fill="white"/>
<rect x="415" y="85" width="13" height="12" fill="white"/>
<rect x="428" y="85" width="13" height="12" fill="white"/>
<rect x="441" y="61" width="13" height="12" fill="white"/>
<rect x="454" y="61" width="13" height="12" fill="white"/>
<rect x="454" y="109" width="13" height="12" fill="white"/>
<rect x="441" y="109" width="13" height="12" fill="white"/>
<rect x="441" y="121" width="13" height="12" fill="white"/>
<rect x="324" y="37" width="13" height="12" fill="white"/>
<rect x="324" y="49" width="13" height="12" fill="white"/>
<rect x="324" y="61" width="13" height="12" fill="white"/>
<rect x="324" y="73" width="13" height="12" fill="white"/>
<rect x="324" y="85" width="13" height="12" fill="white"/>
<rect x="324" y="97" width="13" height="12" fill="white"/>
<rect x="324" y="109" width="13" height="12" fill="white"/>
<rect x="324" y="121" width="13" height="12" fill="white"/>
<rect x="324" y="133" width="13" height="12" fill="white"/>
<rect x="116" y="37" width="13" height="12" fill="white"/>
<rect x="116" y="49" width="13" height="12" fill="white"/>
<rect x="116" y="61" width="13" height="12" fill="white"/>
<rect x="116" y="73" width="13" height="12" fill="white"/>
<rect x="116" y="85" width="13" height="12" fill="white"/>
<rect x="116" y="97" width="13" height="12" fill="white"/>
<rect x="116" y="109" width="13" height="12" fill="white"/>
<rect x="116" y="121" width="13" height="12" fill="white"/>
<rect x="116" y="133" width="13" height="12" fill="white"/>
<rect x="142" y="133" width="13" height="12" fill="white"/>
<rect x="142" y="121" width="13" height="12" fill="white"/>
<rect x="142" y="109" width="13" height="12" fill="white"/>
<rect x="142" y="97" width="13" height="12" fill="white"/>
<rect x="142" y="85" width="13" height="12" fill="white"/>
<rect x="142" y="73" width="13" height="12" fill="white"/>
<rect x="142" y="61" width="13" height="12" fill="white"/>
<rect x="142" y="49" width="13" height="12" fill="white"/>
<rect x="142" y="37" width="13" height="12" fill="white"/>
<rect x="142" y="25" width="13" height="12" fill="white"/>
<rect x="38" y="25" width="13" height="12" fill="white"/>
<rect x="51" y="25" width="13" height="12" fill="white"/>
<rect x="64" y="25" width="13" height="12" fill="white"/>
<rect x="77" y="25" width="13" height="12" fill="white"/>
<rect x="90" y="25" width="13" height="12" fill="white"/>
<rect x="103" y="25" width="13" height="12" fill="white"/>
<rect x="116" y="25" width="13" height="12" fill="white"/>
</g>
<defs>
<filter id="filter0_d_781_1689" x="0" y="0" width="713" height="170" filterUnits="userSpaceOnUse" color-interpolation-filters="sRGB">
<feFlood flood-opacity="0" result="BackgroundImageFix"/>
<feColorMatrix in="SourceAlpha" type="matrix" values="0 0 0 0 0 0 0 0 0 0 0 0 0 0 0 0 0 0 127 0" result="hardAlpha"/>
<feOffset/>
<feGaussianBlur stdDeviation="12.5"/>
<feComposite in2="hardAlpha" operator="out"/>
<feColorMatrix type="matrix" values="0 0 0 0 1 0 0 0 0 1 0 0 0 0 1 0 0 0 0.4 0"/>
<feBlend mode="normal" in2="BackgroundImageFix" result="effect1_dropShadow_781_1689"/>
<feBlend mode="normal" in="SourceGraphic" in2="effect1_dropShadow_781_1689" result="shape"/>
</filter>
</defs>
</svg>
