<svg width="634" height="170" viewBox="0 0 634 170" fill="none" xmlns="http://www.w3.org/2000/svg">
<g filter="url(#filter0_d_781_2006)">
<path d="M96.721 49.4286H108.667V61.375H96.721V49.4286ZM84.7745 49.4286H96.721V61.375H84.7745V49.4286ZM84.7745 37.4821H96.721V49.4286H84.7745V37.4821ZM96.721 37.4821H108.667V49.4286H96.721V37.4821ZM84.7745 25.5357H96.721V37.4821H84.7745V25.5357ZM72.8281 25.5357H84.7745V37.4821H72.8281V25.5357ZM72.8281 37.4821H84.7745V49.4286H72.8281V37.4821ZM60.8817 37.4821H72.8281V49.4286H60.8817V37.4821ZM48.9352 37.4821H60.8817V49.4286H48.9352V37.4821ZM48.9352 25.5357H60.8817V37.4821H48.9352V25.5357ZM36.9888 25.5357H48.9352V37.4821H36.9888V25.5357ZM60.8817 25.5357H72.8281V37.4821H60.8817V25.5357ZM36.9888 37.4821H48.9352V49.4286H36.9888V37.4821ZM25.0424 37.4821H36.9888V49.4286H25.0424V37.4821ZM25.0424 49.4286H36.9888V61.375H25.0424V49.4286ZM36.9888 49.4286H48.9352V61.375H36.9888V49.4286ZM36.9888 61.375H48.9352V73.3214H36.9888V61.375ZM36.9888 73.3214H48.9352V85.2679H36.9888V73.3214ZM25.0424 73.3214H36.9888V85.2679H25.0424V73.3214ZM25.0424 61.375H36.9888V73.3214H25.0424V61.375ZM36.9888 85.2679H48.9352V97.2143H36.9888V85.2679ZM48.9352 85.2679H60.8817V97.2143H48.9352V85.2679ZM48.9352 73.3214H60.8817V85.2679H48.9352V73.3214ZM60.8817 73.3214H72.8281V85.2679H60.8817V73.3214ZM72.8281 73.3214H84.7745V85.2679H72.8281V73.3214ZM84.7745 73.3214H96.721V85.2679H84.7745V73.3214ZM84.7745 85.2679H96.721V97.2143H84.7745V85.2679ZM72.8281 85.2679H84.7745V97.2143H72.8281V85.2679ZM60.8817 85.2679H72.8281V97.2143H60.8817V85.2679ZM96.721 85.2679H108.667V97.2143H96.721V85.2679ZM96.721 97.2143H108.667V109.161H96.721V97.2143ZM84.7745 97.2143H96.721V109.161H84.7745V97.2143ZM72.8281 121.107H84.7745V133.054H72.8281V121.107ZM84.7745 121.107H96.721V133.054H84.7745V121.107ZM84.7745 109.161H96.721V121.107H84.7745V109.161ZM96.721 109.161H108.667V121.107H96.721V109.161ZM96.721 121.107H108.667V133.054H96.721V121.107ZM84.7745 133.054H96.721V145H84.7745V133.054ZM72.8281 133.054H84.7745V145H72.8281V133.054ZM60.8817 133.054H72.8281V145H60.8817V133.054ZM48.9352 133.054H60.8817V145H48.9352V133.054ZM36.9888 133.054H48.9352V145H36.9888V133.054ZM36.9888 121.107H48.9352V133.054H36.9888V121.107ZM48.9352 121.107H60.8817V133.054H48.9352V121.107ZM60.8817 121.107H72.8281V133.054H60.8817V121.107ZM25.0424 121.107H36.9888V133.054H25.0424V121.107ZM25.0424 109.161H36.9888V121.107H25.0424V109.161ZM36.9888 109.161H48.9352V121.107H36.9888V109.161ZM148.998 37.4821H160.944V49.4286H148.998V37.4821ZM160.944 37.4821H172.891V49.4286H160.944V37.4821ZM160.944 25.5357H172.891V37.4821H160.944V25.5357ZM172.891 37.4821H184.837V49.4286H172.891V37.4821ZM172.891 49.4286H184.837V61.375H172.891V49.4286ZM184.837 49.4286H196.783V61.375H184.837V49.4286ZM160.944 49.4286H172.891V61.375H160.944V49.4286ZM148.998 49.4286H160.944V61.375H148.998V49.4286ZM137.051 49.4286H148.998V61.375H137.051V49.4286ZM137.051 61.375H148.998V73.3214H137.051V61.375ZM125.105 61.375H137.051V73.3214H125.105V61.375ZM148.998 61.375H160.944V73.3214H148.998V61.375ZM137.051 73.3214H148.998V85.2679H137.051V73.3214ZM137.051 85.2679H148.998V97.2143H137.051V85.2679ZM137.051 97.2143H148.998V109.161H137.051V97.2143ZM148.998 97.2143H160.944V109.161H148.998V97.2143ZM160.944 97.2143H172.891V109.161H160.944V97.2143ZM172.891 97.2143H184.837V109.161H172.891V97.2143ZM184.837 97.2143H196.783V109.161H184.837V97.2143ZM196.783 97.2143H208.73V109.161H196.783V97.2143ZM196.783 85.2679H208.73V97.2143H196.783V85.2679ZM196.783 73.3214H208.73V85.2679H196.783V73.3214ZM196.783 61.375H208.73V73.3214H196.783V61.375ZM184.837 61.375H196.783V73.3214H184.837V61.375ZM172.891 61.375H184.837V73.3214H172.891V61.375ZM184.837 73.3214H196.783V85.2679H184.837V73.3214ZM184.837 85.2679H196.783V97.2143H184.837V85.2679ZM184.837 109.161H196.783V121.107H184.837V109.161ZM196.783 109.161H208.73V121.107H196.783V109.161ZM196.783 121.107H208.73V133.054H196.783V121.107ZM196.783 133.054H208.73V145H196.783V133.054ZM184.837 133.054H196.783V145H184.837V133.054ZM184.837 121.107H196.783V133.054H184.837V121.107ZM172.891 109.161H184.837V121.107H172.891V109.161ZM160.944 109.161H172.891V121.107H160.944V109.161ZM148.998 109.161H160.944V121.107H148.998V109.161ZM137.051 109.161H148.998V121.107H137.051V109.161ZM137.051 121.107H148.998V133.054H137.051V121.107ZM137.051 133.054H148.998V145H137.051V133.054ZM125.105 133.054H137.051V145H125.105V133.054ZM125.105 121.107H137.051V133.054H125.105V121.107ZM125.105 109.161H137.051V121.107H125.105V109.161ZM125.105 97.2143H137.051V109.161H125.105V97.2143ZM125.105 85.2679H137.051V97.2143H125.105V85.2679ZM125.105 73.3214H137.051V85.2679H125.105V73.3214ZM225.167 25.5357H237.114V37.4821H225.167V25.5357ZM237.114 25.5357H249.06V37.4821H237.114V25.5357ZM237.114 37.4821H249.06V49.4286H237.114V37.4821ZM237.114 49.4286H249.06V61.375H237.114V49.4286ZM237.114 61.375H249.06V73.3214H237.114V61.375ZM225.167 61.375H237.114V73.3214H225.167V61.375ZM225.167 49.4286H237.114V61.375H225.167V49.4286ZM225.167 37.4821H237.114V49.4286H225.167V37.4821ZM225.167 73.3214H237.114V85.2679H225.167V73.3214ZM225.167 85.2679H237.114V97.2143H225.167V85.2679ZM225.167 97.2143H237.114V109.161H225.167V97.2143ZM237.114 85.2679H249.06V97.2143H237.114V85.2679ZM237.114 73.3214H249.06V85.2679H237.114V73.3214ZM237.114 97.2143H249.06V109.161H237.114V97.2143ZM237.114 109.161H249.06V121.107H237.114V109.161ZM225.167 121.107H237.114V133.054H225.167V121.107ZM225.167 109.161H237.114V121.107H225.167V109.161ZM225.167 133.054H237.114V145H225.167V133.054ZM237.114 133.054H249.06V145H237.114V133.054ZM237.114 121.107H249.06V133.054H237.114V121.107ZM249.06 133.054H261.007V145H249.06V133.054ZM261.007 133.054H272.953V145H261.007V133.054ZM272.953 133.054H284.9V145H272.953V133.054ZM272.953 121.107H284.9V133.054H272.953V121.107ZM261.007 121.107H272.953V133.054H261.007V121.107ZM249.06 121.107H261.007V133.054H249.06V121.107ZM325.168 37.4821H337.114V49.4286H325.168V37.4821ZM337.114 37.4821H349.061V49.4286H337.114V37.4821ZM337.114 25.5357H349.061V37.4821H337.114V25.5357ZM349.061 37.4821H361.007V49.4286H349.061V37.4821ZM349.061 49.4286H361.007V61.375H349.061V49.4286ZM361.007 49.4286H372.954V61.375H361.007V49.4286ZM337.114 49.4286H349.061V61.375H337.114V49.4286ZM325.168 49.4286H337.114V61.375H325.168V49.4286ZM313.221 49.4286H325.168V61.375H313.221V49.4286ZM313.221 61.375H325.168V73.3214H313.221V61.375ZM301.275 61.375H313.221V73.3214H301.275V61.375ZM325.168 61.375H337.114V73.3214H325.168V61.375ZM313.221 73.3214H325.168V85.2679H313.221V73.3214ZM313.221 85.2679H325.168V97.2143H313.221V85.2679ZM313.221 97.2143H325.168V109.161H313.221V97.2143ZM325.168 97.2143H337.114V109.161H325.168V97.2143ZM337.114 97.2143H349.061V109.161H337.114V97.2143ZM349.061 97.2143H361.007V109.161H349.061V97.2143ZM361.007 97.2143H372.954V109.161H361.007V97.2143ZM372.954 97.2143H384.9V109.161H372.954V97.2143ZM372.954 85.2679H384.9V97.2143H372.954V85.2679ZM372.954 73.3214H384.9V85.2679H372.954V73.3214ZM372.954 61.375H384.9V73.3214H372.954V61.375ZM361.007 61.375H372.954V73.3214H361.007V61.375ZM349.061 61.375H361.007V73.3214H349.061V61.375ZM361.007 73.3214H372.954V85.2679H361.007V73.3214ZM361.007 85.2679H372.954V97.2143H361.007V85.2679ZM361.007 109.161H372.954V121.107H361.007V109.161ZM372.954 109.161H384.9V121.107H372.954V109.161ZM372.954 121.107H384.9V133.054H372.954V121.107ZM372.954 133.054H384.9V145H372.954V133.054ZM361.007 133.054H372.954V145H361.007V133.054ZM361.007 121.107H372.954V133.054H361.007V121.107ZM349.061 109.161H361.007V121.107H349.061V109.161ZM337.114 109.161H349.061V121.107H337.114V109.161ZM325.168 109.161H337.114V121.107H325.168V109.161ZM313.221 109.161H325.168V121.107H313.221V109.161ZM313.221 121.107H325.168V133.054H313.221V121.107ZM313.221 133.054H325.168V145H313.221V133.054ZM301.275 133.054H313.221V145H301.275V133.054ZM301.275 121.107H313.221V133.054H301.275V121.107ZM301.275 109.161H313.221V121.107H301.275V109.161ZM301.275 97.2143H313.221V109.161H301.275V97.2143ZM301.275 85.2679H313.221V97.2143H301.275V85.2679ZM301.275 73.3214H313.221V85.2679H301.275V73.3214ZM425.23 37.4821H437.177V49.4286H425.23V37.4821ZM437.177 37.4821H449.123V49.4286H437.177V37.4821ZM437.177 25.5357H449.123V37.4821H437.177V25.5357ZM449.123 37.4821H461.07V49.4286H449.123V37.4821ZM449.123 49.4286H461.07V61.375H449.123V49.4286ZM461.07 49.4286H473.016V61.375H461.07V49.4286ZM437.177 49.4286H449.123V61.375H437.177V49.4286ZM425.23 49.4286H437.177V61.375H425.23V49.4286ZM413.284 49.4286H425.23V61.375H413.284V49.4286ZM413.284 61.375H425.23V73.3214H413.284V61.375ZM401.337 61.375H413.284V73.3214H401.337V61.375ZM425.23 61.375H437.177V73.3214H425.23V61.375ZM413.284 73.3214H425.23V85.2679H413.284V73.3214ZM413.284 85.2679H425.23V97.2143H413.284V85.2679ZM413.284 97.2143H425.23V109.161H413.284V97.2143ZM425.23 97.2143H437.177V109.161H425.23V97.2143ZM437.177 97.2143H449.123V109.161H437.177V97.2143ZM449.123 97.2143H461.07V109.161H449.123V97.2143ZM461.07 97.2143H473.016V109.161H461.07V97.2143ZM473.016 97.2143H484.962V109.161H473.016V97.2143ZM473.016 85.2679H484.962V97.2143H473.016V85.2679ZM473.016 73.3214H484.962V85.2679H473.016V73.3214ZM473.016 61.375H484.962V73.3214H473.016V61.375ZM461.07 61.375H473.016V73.3214H461.07V61.375ZM449.123 61.375H461.07V73.3214H449.123V61.375ZM461.07 73.3214H473.016V85.2679H461.07V73.3214ZM461.07 85.2679H473.016V97.2143H461.07V85.2679ZM461.07 109.161H473.016V121.107H461.07V109.161ZM473.016 109.161H484.962V121.107H473.016V109.161ZM473.016 121.107H484.962V133.054H473.016V121.107ZM473.016 133.054H484.962V145H473.016V133.054ZM461.07 133.054H473.016V145H461.07V133.054ZM461.07 121.107H473.016V133.054H461.07V121.107ZM449.123 109.161H461.07V121.107H449.123V109.161ZM437.177 109.161H449.123V121.107H437.177V109.161ZM425.23 109.161H437.177V121.107H425.23V109.161ZM413.284 109.161H425.23V121.107H413.284V109.161ZM413.284 121.107H425.23V133.054H413.284V121.107ZM413.284 133.054H425.23V145H413.284V133.054ZM401.337 133.054H413.284V145H401.337V133.054ZM401.337 121.107H413.284V133.054H401.337V121.107ZM401.337 109.161H413.284V121.107H401.337V109.161ZM401.337 97.2143H413.284V109.161H401.337V97.2143ZM401.337 85.2679H413.284V97.2143H401.337V85.2679ZM401.337 73.3214H413.284V85.2679H401.337V73.3214ZM501.4 133.054H513.346V145H501.4V133.054ZM501.4 121.107H513.346V133.054H501.4V121.107ZM501.4 109.161H513.346V121.107H501.4V109.161ZM501.4 97.2143H513.346V109.161H501.4V97.2143ZM501.4 85.2679H513.346V97.2143H501.4V85.2679ZM501.4 73.3214H513.346V85.2679H501.4V73.3214ZM513.346 73.3214H525.293V85.2679H513.346V73.3214ZM513.346 61.375H525.293V73.3214H513.346V61.375ZM513.346 49.4286H525.293V61.375H513.346V49.4286ZM513.346 37.4821H525.293V49.4286H513.346V37.4821ZM501.4 37.4821H513.346V49.4286H501.4V37.4821ZM501.4 25.5357H513.346V37.4821H501.4V25.5357ZM501.4 49.4286H513.346V61.375H501.4V49.4286ZM501.4 61.375H513.346V73.3214H501.4V61.375ZM513.346 25.5357H525.293V37.4821H513.346V25.5357ZM513.346 85.2679H525.293V97.2143H513.346V85.2679ZM513.346 97.2143H525.293V109.161H513.346V97.2143ZM513.346 109.161H525.293V121.107H513.346V109.161ZM513.346 121.107H525.293V133.054H513.346V121.107ZM513.346 133.054H525.293V145H513.346V133.054ZM525.293 49.4286H537.239V61.375H525.293V49.4286ZM525.293 61.375H537.239V73.3214H525.293V61.375ZM537.239 61.375H549.186V73.3214H537.239V61.375ZM537.239 73.3214H549.186V85.2679H537.239V73.3214ZM549.186 73.3214H561.132V85.2679H549.186V73.3214ZM549.186 85.2679H561.132V97.2143H549.186V85.2679ZM561.132 73.3214H573.079V85.2679H561.132V73.3214ZM561.132 61.375H573.079V73.3214H561.132V61.375ZM573.079 61.375H585.025V73.3214H573.079V61.375ZM573.079 49.4286H585.025V61.375H573.079V49.4286ZM585.025 25.5357H596.971V37.4821H585.025V25.5357ZM585.025 37.4821H596.971V49.4286H585.025V37.4821ZM585.025 49.4286H596.971V61.375H585.025V49.4286ZM585.025 61.375H596.971V73.3214H585.025V61.375ZM585.025 73.3214H596.971V85.2679H585.025V73.3214ZM585.025 85.2679H596.971V97.2143H585.025V85.2679ZM585.025 97.2143H596.971V109.161H585.025V97.2143ZM585.025 109.161H596.971V121.107H585.025V109.161ZM585.025 121.107H596.971V133.054H585.025V121.107ZM585.025 133.054H596.971V145H585.025V133.054ZM596.971 133.054H608.918V145H596.971V133.054ZM596.971 121.107H608.918V133.054H596.971V121.107ZM596.971 109.161H608.918V121.107H596.971V109.161ZM596.971 97.2143H608.918V109.161H596.971V97.2143ZM596.971 85.2679H608.918V97.2143H596.971V85.2679ZM596.971 73.3214H608.918V85.2679H596.971V73.3214ZM596.971 61.375H608.918V73.3214H596.971V61.375ZM596.971 49.4286H608.918V61.375H596.971V49.4286ZM596.971 37.4821H608.918V49.4286H596.971V37.4821ZM596.971 25.5357H608.918V37.4821H596.971V25.5357ZM525.293 37.4821H537.239V49.4286H525.293V37.4821ZM537.239 49.4286H549.186V61.375H537.239V49.4286ZM549.186 61.375H561.132V73.3214H549.186V61.375ZM561.132 49.4286H573.079V61.375H561.132V49.4286ZM573.079 37.4821H585.025V49.4286H573.079V37.4821Z" fill="white"/>
</g>
<defs>
<filter id="filter0_d_781_2006" x="0.0419922" y="0.535706" width="633.876" height="169.464" filterUnits="userSpaceOnUse" color-interpolation-filters="sRGB">
<feFlood flood-opacity="0" result="BackgroundImageFix"/>
<feColorMatrix in="SourceAlpha" type="matrix" values="0 0 0 0 0 0 0 0 0 0 0 0 0 0 0 0 0 0 127 0" result="hardAlpha"/>
<feOffset/>
<feGaussianBlur stdDeviation="12.5"/>
<feComposite in2="hardAlpha" operator="out"/>
<feColorMatrix type="matrix" values="0 0 0 0 1 0 0 0 0 1 0 0 0 0 1 0 0 0 0.4 0"/>
<feBlend mode="normal" in2="BackgroundImageFix" result="effect1_dropShadow_781_2006"/>
<feBlend mode="normal" in="SourceGraphic" in2="effect1_dropShadow_781_2006" result="shape"/>
</filter>
</defs>
</svg>
