<svg width="650" height="632" viewBox="0 0 650 632" fill="none" xmlns="http://www.w3.org/2000/svg">
<path d="M269 544V524.5H230V544H269ZM249.5 612V631.5H269V612H249.5ZM58.5 612H39V631.5H58.5V612ZM78 554C78 543.23 69.2696 534.5 58.5 534.5C47.7304 534.5 39 543.23 39 554H78ZM419.5 544V524.5H380.5V544H419.5ZM400 612H380.5V631.5H400V612ZM591 612V631.5H610.5V612H591ZM610.5 554C610.5 543.23 601.77 534.5 591 534.5C580.23 534.5 571.5 543.23 571.5 554H610.5ZM33.301 5.74054C25.4258 -1.60543 13.0865 -1.17633 5.74054 6.69896C-1.60543 14.5742 -1.17633 26.9135 6.69896 34.2595L33.301 5.74054ZM325 304.5L311.699 318.759L325 331.167L338.301 318.759L325 304.5ZM643.301 34.2595C651.176 26.9135 651.605 14.5742 644.259 6.69896C636.914 -1.17633 624.574 -1.60543 616.699 5.74054L643.301 34.2595ZM249.5 544H230V612H249.5H269V544H249.5ZM249.5 612V592.5H58.5V612V631.5H249.5V612ZM58.5 612H78V554H58.5H39V612H58.5ZM400 544H380.5V612H400H419.5V544H400ZM400 612V631.5H591V612V592.5H400V612ZM591 612H610.5V554H591H571.5V612H591ZM20 20L6.69896 34.2595L311.699 318.759L325 304.5L338.301 290.241L33.301 5.74054L20 20ZM630 20L616.699 5.74054L311.699 290.241L325 304.5L338.301 318.759L643.301 34.2595L630 20Z" fill="white"/>
<path d="M261.753 560.38C192.167 545.517 130.728 506.481 89.2018 450.749C47.6757 395.016 28.9826 326.504 36.7027 258.336C44.4229 190.168 78.0137 127.137 131.041 81.3138C184.069 35.491 252.805 10.0986 324.084 10.0003C395.364 9.90193 464.176 35.1045 517.34 80.7807C570.504 126.457 604.282 189.396 612.206 257.542C620.129 325.688 601.64 394.251 560.281 450.098C518.921 505.946 457.598 545.151 388.057 560.205L379.159 522.167C438.964 509.22 491.702 475.503 527.271 427.475C562.841 379.446 578.741 320.482 571.927 261.876C565.113 203.27 536.063 149.143 490.342 109.861C444.621 70.5798 385.443 48.9056 324.143 48.9902C262.842 49.0748 203.729 70.9123 158.125 110.32C112.522 149.727 83.6336 203.935 76.9943 262.559C70.355 321.183 86.4311 380.103 122.143 428.034C157.856 475.964 210.694 509.535 270.537 522.317L261.753 560.38Z" fill="white"/>
</svg>
